<?xml version="1.0" standalone="no"?>
<!DOCTYPE svg PUBLIC "-//W3C//DTD SVG 1.1//EN" "http://www.w3.org/Graphics/SVG/1.1/DTD/svg11.dtd" >
<svg xmlns="http://www.w3.org/2000/svg">
<metadata></metadata>
<defs>
<font id="bubbleboddy_lightlight" horiz-adv-x="1095" >
<font-face units-per-em="2048" ascent="1638" descent="-410" />
<missing-glyph horiz-adv-x="460" />
<glyph horiz-adv-x="0" />
<glyph horiz-adv-x="682" />
<glyph unicode=" "  horiz-adv-x="460" />
<glyph unicode="&#x09;" horiz-adv-x="460" />
<glyph unicode="&#xa0;" horiz-adv-x="460" />
<glyph unicode="!" horiz-adv-x="241" d="M59 59q0 25 17.5 41.5t42.5 16.5t41 -16.5t16 -41.5t-16.5 -42t-40.5 -17q-25 0 -42.5 17.5t-17.5 41.5zM78 342v909q0 16 12 28.5t29 12.5q16 0 28.5 -12t12.5 -29v-909q0 -16 -12.5 -28.5t-28.5 -12.5t-28.5 12.5t-12.5 28.5z" />
<glyph unicode="&#x22;" horiz-adv-x="395" d="M74 1063v201q0 16 12.5 28.5t28.5 12.5t28.5 -12.5t12.5 -28.5v-201q0 -16 -12.5 -28.5t-28.5 -12.5t-28.5 12.5t-12.5 28.5zM238 1063v201q0 16 12.5 28.5t28.5 12.5t28 -12.5t12 -28.5v-201q0 -16 -12 -28.5t-28 -12.5t-28.5 12.5t-12.5 28.5z" />
<glyph unicode="#" horiz-adv-x="1302" d="M18 440q0 16 12.5 28.5t28.5 12.5h338l82 367h-325q-16 0 -28.5 12t-12.5 29q0 16 12 28.5t29 12.5h344l75 344q4 16 18.5 25.5t31.5 5.5q16 -4 26 -17.5t6 -30.5l-73 -327h274l76 344q4 16 18.5 25.5t30.5 5.5q39 -8 33 -45q-18 -84 -37 -166t-37 -164h303 q16 0 28.5 -12.5t12.5 -28.5t-12 -28.5t-29 -12.5h-321q-20 -92 -40 -183.5t-42 -183.5h309q16 0 28.5 -12.5t12.5 -28.5t-12.5 -28.5t-28.5 -12.5h-328q-20 -92 -39.5 -182t-40.5 -182q-4 -16 -18 -26.5t-31 -6.5q-16 4 -25.5 17.5t-4.5 29.5l75 350h-272l-82 -366 q-4 -16 -18.5 -25.5t-30.5 -5.5t-25.5 17.5t-5.5 29.5l76 350h-320q-16 0 -28.5 12.5t-12.5 28.5zM483 481h273l82 367h-275z" />
<glyph unicode="$" horiz-adv-x="899" d="M34 258q-1 16 15 27q14 10 31.5 6t23.5 -21q14 -37 44 -70.5t73 -60t98.5 -44t120.5 -17.5q63 0 125 18.5t111 53t78.5 86t27.5 112.5q-2 55 -33.5 101.5t-79.5 82t-105.5 62.5t-110.5 43q-78 25 -145.5 54.5t-120 68.5t-82 91t-29.5 122q0 63 27.5 118.5t74.5 96.5 t106.5 66.5t125.5 31.5v84q0 16 12.5 28.5t28.5 12.5t28.5 -12.5t12.5 -28.5v-84q61 -6 111 -25.5t90 -48t72 -65.5t56 -76q10 -14 5 -28.5t-19 -24.5t-28.5 -6t-24.5 18q-61 90 -130 132t-173 44q-53 0 -105.5 -16t-93.5 -47t-67.5 -75t-26.5 -95q0 -55 29.5 -95t73.5 -71 t95.5 -52.5t96.5 -35.5q70 -25 141.5 -56.5t131.5 -75.5t98 -103.5t40 -135.5q2 -68 -25.5 -128t-76.5 -106t-119 -76t-151 -36v-127q0 -16 -12.5 -28.5t-28.5 -12.5t-28.5 12.5t-12.5 28.5v125q-68 4 -127.5 23.5t-106.5 49t-81 67.5t-50 79q-10 23 -11 39z" />
<glyph unicode="%" horiz-adv-x="1181" d="M45 1024q0 57 21.5 108.5t59.5 90.5t88 60.5t110 21.5q57 0 108 -21.5t90 -60.5t60.5 -90.5t21.5 -108.5q0 -59 -21.5 -109.5t-60.5 -88.5t-90 -59.5t-108 -21.5q-59 0 -109.5 21.5t-88.5 59.5t-59.5 88.5t-21.5 109.5zM127 1024q0 -84 56.5 -140.5t140.5 -56.5t141 56.5 t57 140.5t-57 141.5t-141 57.5t-140.5 -57.5t-56.5 -141.5zM309 57l486 1221q6 16 21.5 22t31.5 0t22.5 -21t1.5 -32l-487 -1222q-6 -16 -21.5 -21.5t-31.5 0.5t-21.5 21.5t-1.5 31.5zM578 279q0 57 21.5 108t59 90t88 60.5t109.5 21.5q57 0 108.5 -21.5t90.5 -60.5 t60.5 -90t21.5 -108q0 -59 -21.5 -109.5t-60.5 -88.5t-90.5 -59.5t-108.5 -21.5q-59 0 -109.5 21.5t-88 59.5t-59 88.5t-21.5 109.5zM659 279q0 -84 56.5 -140.5t140.5 -56.5t141.5 56.5t57.5 140.5t-57.5 141t-141.5 57t-140.5 -57t-56.5 -141z" />
<glyph unicode="&#x26;" horiz-adv-x="874" d="M53 379q0 115 60.5 207t158.5 137q-66 41 -105.5 109.5t-39.5 152.5q0 63 24.5 119.5t65.5 97.5t97.5 65.5t119.5 24.5h39q16 0 28.5 -12t12.5 -29q0 -16 -12.5 -28.5t-28.5 -12.5h-39q-47 0 -88 -17t-71.5 -48t-48 -72t-17.5 -88t17.5 -88t48 -71.5t71.5 -49t88 -18.5 h182v278q0 16 12.5 28.5t28.5 12.5t28.5 -12t12.5 -29v-278h109q16 0 27.5 -12.5t11.5 -28.5q0 -39 -39 -39h-109v-637q0 -16 -12 -28.5t-29 -12.5h-223q-80 0 -148.5 29.5t-120.5 81t-82 120t-30 148.5zM135 379q0 -61 23.5 -115.5t63.5 -95.5t95.5 -64.5t116.5 -23.5h182 v598h-182q-61 0 -116.5 -23.5t-95.5 -64.5t-63.5 -95.5t-23.5 -115.5z" />
<glyph unicode="'" horiz-adv-x="249" d="M78 1065v201q0 16 12.5 28.5t28.5 12.5t28.5 -12.5t12.5 -28.5v-201q0 -16 -12.5 -28.5t-28.5 -12.5t-28.5 12.5t-12.5 28.5z" />
<glyph unicode="(" horiz-adv-x="514" d="M63 84v813q0 82 32 153.5t85 125t126 85t155 31.5q16 0 28.5 -12t12.5 -29q0 -16 -12.5 -28.5t-32.5 -12.5q-66 0 -122 -25.5t-98 -68.5t-67 -99t-25 -120v-813q0 -63 25 -119.5t68 -99.5t100 -68.5t123 -25.5q16 0 28.5 -12.5t12.5 -28.5t-12.5 -28.5t-28.5 -12.5 q-82 0 -153.5 30.5t-126 85t-86.5 126t-32 153.5z" />
<glyph unicode=")" horiz-adv-x="514" d="M12 -270q0 16 12.5 28.5t28.5 12.5q66 0 123 25.5t100 68.5t68 99t25 120v813q0 63 -25 119.5t-66.5 99.5t-99 68.5t-121.5 25.5q-20 0 -32.5 12.5t-12.5 28.5t12.5 28.5t28.5 12.5q82 0 155 -31.5t126 -85t85 -125t32 -153.5v-813q0 -82 -32 -153.5t-86 -126t-126 -85 t-154 -30.5q-16 0 -28.5 12.5t-12.5 28.5z" />
<glyph unicode="*" horiz-adv-x="825" d="M27 660.5q4 15.5 18 23.5l295 188l-281 181q-16 8 -19 24.5t7 30.5q10 16 25.5 19t29.5 -7l271 -174v305q0 16 12.5 28.5t28.5 12.5t28.5 -12t12.5 -29v-305l268 172q14 10 29.5 7t25.5 -19q10 -14 7 -30.5t-19 -24.5l-279 -179l293 -186q14 -8 18.5 -23.5t-5.5 -31.5 t-26.5 -19.5t-31.5 6.5l-280 181v-322q0 -16 -12.5 -28.5t-28.5 -12.5t-28.5 12.5t-12.5 28.5v320l-283 -181q-14 -10 -30.5 -7t-26.5 20q-10 16 -6 31.5z" />
<glyph unicode="+" horiz-adv-x="786" d="M6 627q0 16 12.5 28.5t28.5 12.5l309 -4l-4 309q0 16 12.5 28.5t28.5 12.5t28.5 -12.5t12.5 -28.5l-4 -309l309 4q16 0 28.5 -12.5t12.5 -28.5t-12 -28.5t-29 -12.5l-309 4l4 -309q0 -16 -12.5 -28.5t-28.5 -12.5t-28.5 12t-12.5 29l4 309l-309 -4q-16 0 -28.5 12 t-12.5 29z" />
<glyph unicode="," horiz-adv-x="210" d="M31 -77.5q0 18.5 7 50t28 82.5q8 16 29 27.5t48 -2.5q31 -14 34 -39t-7 -41q-29 -47 -46.5 -73.5t-30.5 -38t-22.5 -11.5t-17.5 4q-10 4 -16 13.5t-6 28z" />
<glyph unicode="-" horiz-adv-x="933" d="M80 616q0 16 12 28.5t29 12.5h692q16 0 28.5 -12.5t12.5 -28.5t-12.5 -28.5t-28.5 -12.5h-692q-16 0 -28.5 12.5t-12.5 28.5z" />
<glyph unicode="." horiz-adv-x="200" d="M41 57q0 25 16.5 42.5t40.5 17.5q25 0 42.5 -17.5t17.5 -42.5t-17.5 -41t-42.5 -16t-41 16t-16 41z" />
<glyph unicode="/" horiz-adv-x="587" d="M12 57l486 1221q6 16 21.5 22t31.5 0t22.5 -21t1.5 -32l-487 -1222q-6 -16 -21.5 -21.5t-31.5 0.5t-21.5 21.5t-1.5 31.5z" />
<glyph unicode="0" horiz-adv-x="1105" d="M57 496q0 102 39 192t106.5 157.5t158 106.5t192.5 39t192.5 -39t158 -106.5t106.5 -157.5t39 -192t-39 -192.5t-106.5 -158t-158 -106.5t-192.5 -39t-192.5 39t-158 106.5t-106.5 158t-39 192.5zM143 496q0 -86 32 -163t87 -134.5t130 -90t161 -32.5t160.5 32.5t130 90 t87.5 134.5t32 163t-32 162.5t-87.5 134t-130 90t-160.5 32.5t-161 -32.5t-130 -90t-87 -134t-32 -162.5z" />
<glyph unicode="1" horiz-adv-x="292" d="M8 829.5q0 16.5 10 28.5l115 121q10 10 27 12t33 -10q8 -6 10 -15.5t2 -15.5v-909q0 -16 -12.5 -28.5t-28.5 -12.5t-28.5 12.5t-12.5 28.5v819l-45 -57q-10 -12 -27.5 -13.5t-30.5 11.5q-12 12 -12 28.5z" />
<glyph unicode="2" horiz-adv-x="978" d="M82 80q37 66 91 125t116.5 111.5t131 97.5t134.5 80q84 45 137 76.5t84 57t42 50t11 57.5q0 18 -12 48t-46 58.5t-94.5 49t-158.5 20.5q-70 0 -129 -16t-103 -41t-68.5 -56.5t-24.5 -62.5q0 -4 -6.5 -22.5t-34.5 -18.5l-8 1q-7 1 -15 4t-14 11.5t-6 24.5q0 59 35.5 106.5 t93 81t132 52t154.5 18.5q104 0 179 -23.5t122 -60.5t67.5 -83t20.5 -91q-2 -63 -31.5 -106t-77.5 -79t-111.5 -68.5t-133.5 -73.5q-129 -78 -222 -156t-165 -170h729q16 0 28.5 -12.5t12.5 -28.5t-12 -28.5t-29 -12.5h-758q-39 0 -60.5 22.5t-0.5 57.5z" />
<glyph unicode="3" horiz-adv-x="884" d="M27 950q0 16 12 28.5t29 12.5h712q23 0 35 -18q10 -14 7 -30.5t-17 -27.5l-438 -307q96 0 179 -33.5t144.5 -94t97 -142.5t35.5 -178q0 -102 -32.5 -186.5t-92 -143.5t-143.5 -92t-186 -33q-98 0 -177 26.5t-139 73.5q-16 12 -21 31t11 35q10 12 27.5 12t29.5 -12 q96 -90 269 -90q174 0 275 102.5t101 276.5q0 86 -29.5 156.5t-81.5 119.5t-126 76t-160 27h-69q-23 -4 -37 16q-10 14 -7 30.5t17 26.5l410 297h-594q-16 0 -28.5 12.5t-12.5 28.5z" />
<glyph unicode="4" horiz-adv-x="905" d="M23 57l290 904q6 18 22 24t32 0q20 -8 23 -20.5t-1 -28.5l-266 -854h495l-6 229q0 16 12.5 28.5t28.5 12.5t28.5 -12t12.5 -29l-6 -229h150q16 0 28.5 -12.5t12.5 -28.5t-12.5 -28.5t-28.5 -12.5h-150l6 -240q0 -16 -12 -28.5t-29 -12.5q-16 0 -28.5 12.5t-12.5 28.5 l6 240h-557q-20 0 -33.5 17.5t-4.5 39.5z" />
<glyph unicode="5" horiz-adv-x="903" d="M61 578v368q0 16 11.5 28.5t29.5 12.5h639q16 0 28.5 -12t12.5 -29q0 -16 -12 -28.5t-29 -12.5h-598v-291h250q102 0 189.5 -32.5t151 -93t99 -144.5t35.5 -186t-32.5 -186.5t-92 -143.5t-143.5 -92t-186 -33q-98 0 -177.5 26.5t-138.5 73.5q-16 12 -21 31t11 35 q10 12 27.5 12t29.5 -12q96 -90 269 -90q174 0 275.5 102.5t101.5 276.5q0 86 -30 156.5t-82 119.5t-126 76t-160 27h-291q-16 0 -28.5 12t-12.5 29z" />
<glyph unicode="6" horiz-adv-x="1071" d="M49 496q0 66 18.5 127t43.5 114l256 531q6 16 21.5 22t31.5 -2t21 -23.5t-1 -31.5l-149 -311q55 33 118.5 51t135.5 18q102 0 192 -39t158 -106.5t106.5 -157.5t38.5 -192t-38.5 -192.5t-106.5 -158t-158 -106.5t-192 -39t-192.5 39t-158 106.5t-106.5 157.5t-39 193z M135 496q0 -86 32 -163t87 -134.5t130 -90t161 -32.5t160.5 32.5t130 90t87 134.5t31.5 163t-31.5 162.5t-87 134t-130 90t-160.5 32.5t-161 -32.5t-130 -90t-87 -134t-32 -162.5z" />
<glyph unicode="7" horiz-adv-x="989" d="M70 950q0 16 12 28.5t29 12.5h782q16 0 28.5 -8t12.5 -27q0 -16 -12 -34l-750 -1198q-8 -16 -24.5 -20.5t-30.5 5.5t-18.5 25.5t3.5 32.5l732 1146l-723 -4q-16 0 -28.5 12.5t-12.5 28.5z" />
<glyph unicode="8" horiz-adv-x="1019" d="M45 465q0 76 23.5 145.5t64.5 127t99.5 100.5t125.5 65q-35 31 -55 75t-20 97q0 47 17 89t48 73t73 49.5t89 18.5t89 -18.5t72.5 -49.5t49 -73t18.5 -89q0 -53 -21.5 -97t-55.5 -75q68 -25 126 -67.5t99 -99t64.5 -126t23.5 -145.5q0 -96 -37 -181t-99.5 -147.5 t-147.5 -99.5t-181 -37t-181 37t-147.5 99.5t-99.5 147.5t-37 181zM127 465q0 -80 29.5 -149.5t82 -122t122 -82t149.5 -29.5t149.5 29.5t122 82t82 122t29.5 149.5q0 78 -29.5 146.5t-81 120.5t-122 83t-150.5 33q-80 0 -149.5 -30t-122 -82t-82 -121.5t-29.5 -149.5z M365 1075q0 -59 39.5 -101t105.5 -44q61 -2 104 41t43 104t-43 104.5t-104 43.5t-103 -43.5t-42 -104.5z" />
<glyph unicode="9" horiz-adv-x="1071" d="M31 496q0 102 39 192t106.5 157.5t157.5 106.5t192 39t192.5 -39t158 -106.5t106.5 -157.5t39 -192q0 -66 -18.5 -127.5t-42.5 -114.5l-256 -530q-6 -16 -22 -22.5t-32 1.5t-21 23.5t1 31.5l149 312q-55 -33 -118.5 -51.5t-135.5 -18.5q-102 0 -192 39t-157.5 106.5 t-106.5 157.5t-39 193zM117 496q0 -86 31.5 -163t87 -134.5t130 -90t160.5 -32.5t161 32.5t130 90t87 134.5t32 163t-32 162.5t-87 134t-130 90t-161 32.5t-160.5 -32.5t-130 -90t-87 -134t-31.5 -162.5z" />
<glyph unicode=":" horiz-adv-x="239" d="M61 57q0 25 16.5 42.5t41.5 17.5t42 -17.5t17 -42.5t-17.5 -41t-41.5 -16q-25 0 -41.5 16t-16.5 41zM61 930q0 25 16.5 42t41.5 17t42 -17.5t17 -41.5q0 -25 -17.5 -41.5t-41.5 -16.5q-25 0 -41.5 16.5t-16.5 41.5z" />
<glyph unicode=";" horiz-adv-x="264" d="M43 -77.5q0 18.5 7 50t28 82.5q8 16 29.5 27.5t48.5 -2.5q31 -14 34 -39t-8 -41q-29 -47 -46 -73.5t-30.5 -38t-22.5 -11.5t-17 4q-10 4 -16.5 13.5t-6.5 28zM72 930q0 25 16 42t41 17t42 -17.5t17 -41.5q0 -25 -17 -41.5t-42 -16.5t-41 16.5t-16 41.5z" />
<glyph unicode="&#x3c;" horiz-adv-x="595" d="M57 584q0 16 6.5 23t14.5 16l385 387q12 10 29.5 10t29.5 -10q10 -12 10 -29.5t-10 -30.5l-387 -364l369 -344q10 -12 10 -30t-10 -30q-12 -10 -29.5 -10t-30.5 10l-366 367q-10 10 -15.5 16t-5.5 19z" />
<glyph unicode="=" horiz-adv-x="933" d="M80 463q0 16 12 28.5t29 12.5h692q16 0 28.5 -12.5t12.5 -28.5t-12.5 -28.5t-28.5 -12.5h-692q-16 0 -28.5 12t-12.5 29zM80 709q0 16 12 28.5t29 12.5h692q16 0 28.5 -12.5t12.5 -28.5t-12.5 -28.5t-28.5 -12.5h-692q-16 0 -28.5 12t-12.5 29z" />
<glyph unicode="&#x3e;" horiz-adv-x="591" d="M66 979.5q0 17.5 10 30.5q12 10 29.5 10t29.5 -10l385 -387q8 -8 14.5 -15.5t6.5 -23.5q0 -12 -5.5 -18.5t-15.5 -16.5l-366 -367q-12 -10 -30 -10t-30 10q-10 12 -10 29.5t10 30.5l369 344l-387 364q-10 12 -10 29.5z" />
<glyph unicode="?" horiz-adv-x="993" d="M57 979q23 80 87.5 144.5t140.5 105.5q92 49 181 59t169 -13.5t146.5 -77.5t115.5 -134q31 -51 45 -128t1 -161t-59 -164t-136 -137q-41 -27 -99.5 -45t-97.5 -25v-63q0 -16 -12.5 -27.5t-28.5 -11.5t-28.5 11.5t-12.5 27.5v96q0 16 12.5 26.5t28.5 10.5q23 0 50.5 6 t54 15.5t51 21.5t43.5 25q70 49 107.5 111.5t50 127t3 124t-33.5 102.5q-43 78 -102.5 127t-127 68.5t-141.5 10t-143 -48.5q-66 -37 -116 -87t-73 -115q-14 -39 -45 -33q-20 4 -27.5 19.5t-3.5 31.5zM455 57q0 25 16 42.5t41 17.5t42 -17.5t17 -42.5t-17 -41t-42 -16 t-41 16t-16 41z" />
<glyph unicode="@" horiz-adv-x="1394" d="M55 645q0 133 50.5 251t138.5 205t205.5 138t250.5 51t251 -51t205 -138t138.5 -205t51.5 -251q0 -104 -21.5 -181t-54.5 -138q-20 -39 -57 -77t-103 -38q-37 0 -59.5 14.5t-34.5 36t-16.5 45t-4.5 43.5v107q-10 -29 -33.5 -54.5t-55.5 -46t-70.5 -33t-81.5 -12.5 q-57 0 -105.5 22.5t-84.5 59.5t-55.5 87t-19.5 108q0 57 19.5 107t55.5 88t84 59.5t106 21.5q47 0 88 -15t72.5 -36.5t52 -48.5t28.5 -47v24q0 43 14.5 63.5t30.5 20.5q18 0 25.5 -10t7.5 -18v-445q0 -4 1 -14t5 -20.5t13.5 -18.5t27.5 -8q23 0 53.5 26.5t53.5 96.5 q8 27 16 50t13.5 49t8.5 56.5t3 75.5q2 117 -42 219.5t-122 179t-182.5 120.5t-221.5 44t-219 -44t-179 -120.5t-121 -179t-44 -219.5t44 -220t121 -182t179.5 -124t218.5 -45q55 0 91 7t65 23q35 20 55 -4q18 -23 -4 -49q-14 -16 -39.5 -25.5t-54.5 -15.5t-59.5 -8 t-53.5 -2q-133 0 -250.5 50t-205.5 138t-138.5 206t-50.5 251zM565 588q0 -84 51.5 -143.5t137.5 -59.5q43 0 80.5 16.5t66.5 44t46.5 64.5t17.5 78t-17.5 79t-47.5 66.5t-67.5 45t-78.5 16.5q-86 0 -137.5 -60.5t-51.5 -146.5z" />
<glyph unicode="A" d="M37 55l467 1196q2 8 0 15.5t0 13.5t9.5 9t27.5 3q12 0 25.5 -6t19.5 -20l473 -1211q3 -7 3 -15t-4 -16q-7 -16 -24 -22q-7 -3 -15 -3q-9 0 -17 4q-16 7 -21 24l-127 321h-614l-125 -321q-5 -15 -21 -23q-9 -4 -18 -5q-7 0 -15 3q-16 6 -23 22q-4 8 -4 16t3 15zM272 430 h551l-276 703z" />
<glyph unicode="B" horiz-adv-x="1052" d="M72 1266q-1 4 -1 7.5t1 6.5q2 6 10 9t29 3h8h489h2q63 0 119.5 -24.5t97.5 -65.5t66 -97t25 -120q0 -84 -40 -152.5t-106 -109.5q98 -45 158.5 -137t60.5 -207q0 -80 -29.5 -148.5t-82 -120t-121 -81t-148.5 -29.5h-495q-16 0 -28.5 12.5t-12.5 28.5v1210q0 7 -2 15z M156 80h452h2q61 0 116.5 23.5t95.5 64.5t63.5 95t23.5 116q0 61 -23.5 115.5t-63.5 94.5t-95 63.5t-117 23.5h-454v-596zM156 760h454q47 0 88 17.5t72 48t48.5 71.5t17.5 88t-17.5 88t-48.5 72t-72 48t-88 17h-454v-450z" />
<glyph unicode="C" horiz-adv-x="1251" d="M53 643q0 133 50.5 251t138.5 205t205.5 138t250.5 51q82 0 148.5 -14t124 -43t110 -71t107.5 -99q12 -12 12 -29q0 -16 -12 -28t-29 -13q-19 1 -35 19q-92 100 -194.5 148t-231.5 48q-117 0 -219 -44t-179 -120.5t-121 -179t-44 -219.5t44 -219t121 -179t179.5 -121 t218.5 -44q129 0 239 52t187 144q10 12 18.5 15.5t16.5 3.5q16 0 29 -12q12 -12 12 -27q0 -18 -16 -35q-53 -57 -105.5 -99t-109 -69.5t-123 -41t-148.5 -13.5q-133 0 -250.5 50t-205.5 138t-138.5 206t-50.5 251z" />
<glyph unicode="D" horiz-adv-x="1218" d="M80 1266q-1 4 -1 7.5t1 6.5q2 6 10 9t29 3h8h322q133 0 250.5 -51t205.5 -139t139.5 -206t51.5 -251t-51.5 -251t-139.5 -206t-205.5 -138t-250.5 -50h-326q-16 0 -28.5 12.5t-12.5 28.5v1210q0 7 -2 15zM164 82h285q117 0 219 44t179 121t122 179t45 219t-45 219.5 t-122 179t-179.5 121.5t-218.5 45h-285v-1128z" />
<glyph unicode="E" horiz-adv-x="974" d="M78 1272q0 8 5 14t21 6h826q16 0 28.5 -12t12.5 -29q0 -16 -12.5 -28.5t-28.5 -12.5h-764v-583h631q16 0 28.5 -12.5t12.5 -28.5t-12.5 -28.5t-28.5 -12.5h-631v-463h764q16 0 28.5 -12.5t12.5 -28.5t-12.5 -28.5t-28.5 -12.5h-809q-16 0 -26.5 12.5t-10.5 28.5v1196 q0 8 -3 17.5t-3 17.5z" />
<glyph unicode="F" horiz-adv-x="940" d="M72 1272q0 8 5 14t21 6h801q16 0 28.5 -12t12.5 -29q0 -16 -12.5 -28.5t-28.5 -12.5h-739v-583h604q16 0 28.5 -12.5t12.5 -28.5t-12.5 -28.5t-28.5 -12.5h-604v-504q0 -16 -12.5 -28.5t-28.5 -12.5t-28.5 12.5t-12.5 28.5v1196q0 8 -3 17.5t-3 17.5z" />
<glyph unicode="G" horiz-adv-x="1345" d="M53 645q0 133 50.5 251t138.5 205t205.5 138t250.5 51q82 0 148.5 -14t124 -43t110 -71t107.5 -99q12 -12 12 -29q0 -16 -12 -28t-29 -13q-18 0 -35 19q-92 100 -194.5 148t-231.5 48q-117 0 -219 -44t-179 -120.5t-121 -179t-44 -219.5t42 -219t115 -179t173 -121 t217 -44q86 0 167 29.5t146.5 81t109.5 120t56 148.5h-354q-16 0 -28.5 12t-12.5 29q0 16 12.5 28.5t28.5 12.5h399h4q16 -2 26.5 -13.5t10.5 -27.5v-461q0 -16 -12 -28.5t-29 -12.5q-16 0 -28.5 12.5t-12.5 28.5v235q-18 -53 -65 -103t-112.5 -89t-144.5 -61.5t-161 -22.5 q-133 0 -249 50t-199.5 138t-132 206t-48.5 251z" />
<glyph unicode="H" horiz-adv-x="1157" d="M78 1266q-1 4 -1 7.5t1 6.5q2 6 10 9t29 3q23 0 34 -12t11 -29v-569h835v569q0 8 -2 15.5t0 13.5t10.5 9t28.5 3q23 0 34 -12t11 -29v-1210q0 -16 -12 -28.5t-29 -12.5q-16 0 -28.5 12.5t-12.5 28.5v559h-835v-559q0 -16 -12.5 -28.5t-28.5 -12.5t-28.5 12.5t-12.5 28.5 v1210q0 7 -2 15z" />
<glyph unicode="I" horiz-adv-x="235" d="M86 1264q-1 4 -1 7.5t1 6.5q2 6 10 9t29 3q23 0 34 -12t11 -29v-1208q0 -16 -12.5 -28.5t-28.5 -12.5t-28.5 12.5t-12.5 28.5v1208q0 7 -2 15z" />
<glyph unicode="J" horiz-adv-x="237" d="M-178 -274q0 16 12 28.5t33 12.5q100 4 155.5 81.5t55.5 192.5v1208l-2 23q0 8 7 13t32 5q23 0 34 -12t11 -29v-1208q0 -76 -20.5 -140.5t-58.5 -112.5t-93.5 -75.5t-124.5 -27.5q-16 0 -28.5 12.5t-12.5 28.5z" />
<glyph unicode="K" horiz-adv-x="1114" d="M80 1264q-1 4 -1 7.5t1 6.5q2 6 10 9t29 3q23 0 34 -12t11 -29v-674l852 705q14 10 30.5 9t26.5 -15q11 -11 11 -27q0 -19 -17 -30l-471 -392l481 -762q8 -12 8 -24q0 -3 -1 -7q-3 -16 -19 -26q-12 -7 -23 -7q-20 0 -34 24l-478 747l-366 -305v-424q0 -16 -12.5 -28.5 t-28.5 -12.5t-28.5 12.5t-12.5 28.5v1208q0 7 -2 15z" />
<glyph unicode="L" horiz-adv-x="985" d="M76 1264q-1 4 -1 7.5t1 6.5q2 6 10 9t29 3q23 0 34 -12t11 -29v-1167h784q16 0 28.5 -12.5t12.5 -28.5t-12 -28.5t-29 -12.5h-829q-16 0 -26.5 12.5t-10.5 28.5v1208q0 7 -2 15z" />
<glyph unicode="M" horiz-adv-x="1351" d="M82 1276q0 8 3 12t36 4h10q23 0 26 -4t9 -14l516 -670l508 664l12 18t29 6q31 0 38 -11t7 -28v-1212q0 -16 -12.5 -28.5t-28.5 -12.5t-28.5 12.5t-12.5 28.5v1094q-113 -145 -233.5 -296t-227.5 -298q-6 -8 -19.5 -18.5t-31.5 -10.5q-20 0 -32.5 9t-20.5 20l-463 598 v-1098q0 -16 -12.5 -28.5t-28.5 -12.5t-28.5 12.5t-12.5 28.5v1212z" />
<glyph unicode="N" horiz-adv-x="1298" d="M88 1289q8 3 31 3q12 0 21.5 -9t23.5 -23l9 -10q9 -9 41 -44t93.5 -105.5t168 -194.5t266 -311t386.5 -454v1112q0 8 -3 15.5t-2 12.5t10.5 8t31.5 3q33 0 39 -11t6 -28v-1212q0 -16 -12 -28.5t-29 -12.5q-16 0 -24 6t-17 17l-964 1116v-1098q0 -16 -12.5 -28.5 t-28.5 -12.5t-28.5 12.5t-12.5 28.5v1212q0 7 -2 15q-1 5 -1 9q0 8 9 12z" />
<glyph unicode="O" horiz-adv-x="1400" d="M49 645q0 133 50.5 251t138.5 205t205.5 138t250.5 51t251 -51t205 -138t138 -205t51 -251t-51 -251t-138 -206t-205 -138t-251 -50t-250.5 50t-205.5 138t-138.5 206t-50.5 251zM131 645q0 -117 44 -219t121 -179t179.5 -121t218.5 -44q117 0 219.5 44t179 121 t120.5 179t44 219t-44 219.5t-120.5 179t-179 120.5t-219.5 44t-219 -44t-179 -120.5t-121 -179t-44 -219.5z" />
<glyph unicode="P" horiz-adv-x="907" d="M78 1266q-1 4 -1 7.5t1 6.5q2 6 10 9t29 3h270q106 0 201.5 -37.5t166 -104.5t111.5 -159t41 -198q0 -109 -41 -196t-111.5 -150.5t-165.5 -97.5t-202 -34h-225v-274q0 -16 -12.5 -28.5t-28.5 -12.5t-28.5 12.5t-12.5 28.5v1210q0 7 -2 15zM162 397h225q90 0 170 28 t139.5 79t94 125t34.5 164t-34.5 166.5t-94 132t-139.5 87t-170 31.5h-225v-813z" />
<glyph unicode="Q" horiz-adv-x="1376" d="M43 645q0 133 50 251t138 205t206 138t251 51t251 -51t205 -138t138 -205t51 -251q0 -129 -47 -242.5t-129 -199.5t-192.5 -139.5t-235.5 -61.5l-4 -207q0 -37 -37 -37t-37 37l-4 207q-127 8 -237.5 61.5t-191.5 139.5t-128 199.5t-47 242.5zM125 645q0 -117 44 -219 t121 -179t179 -121t219 -44t219.5 44t179 121t120.5 179t44 219t-44 219.5t-120.5 179t-179 120.5t-219.5 44t-219 -44t-179 -120.5t-121 -179t-44 -219.5z" />
<glyph unicode="R" horiz-adv-x="960" d="M78 1266q-1 4 -1 7.5t1 6.5q2 6 10 9t29 3h270q106 0 201.5 -37.5t166 -104.5t111.5 -159t41 -198q0 -158 -83 -270.5t-218 -166.5l293 -284q10 -10 12 -28v-6q0 -15 -10 -24q-12 -10 -28.5 -11t-30.5 11l-328 314q-61 -12 -127 -13h-225v-274q0 -16 -12.5 -28.5 t-28.5 -12.5t-28.5 12.5t-12.5 28.5v1210q0 7 -2 15zM162 397h225q90 0 170 28t139.5 79t94 125t34.5 164t-34.5 166.5t-94 132t-139.5 87t-170 31.5h-225v-813z" />
<glyph unicode="S" horiz-adv-x="923" d="M38 260q0 15 15 25q14 10 31.5 6t24.5 -21q14 -37 43.5 -70.5t72.5 -60t98.5 -44t120.5 -17.5q63 0 125 18.5t111 53.5q48 34 78 86q28 48 28 104v8q-2 55 -33.5 101.5t-79.5 82t-105.5 62.5t-110.5 43q-78 25 -145.5 54.5t-120 68.5t-82 91t-29.5 122t32.5 128t85 99 t120 64.5t137.5 23.5q72 0 128 -18.5t101 -48t80 -68.5t61 -82q10 -14 5 -28.5t-19 -24.5t-28.5 -6t-24.5 18q-61 90 -130 132t-173 44q-53 0 -105.5 -16t-93.5 -47t-67.5 -75t-26.5 -95q0 -55 29.5 -95t73.5 -71t95.5 -52.5t96.5 -35.5q70 -25 141.5 -56.5t132 -75.5 t98 -103.5t39.5 -135.5v-9q0 -69 -30 -129q-32 -64 -89 -110.5t-134.5 -73t-170.5 -26.5q-74 0 -137 17.5t-115.5 48t-88 70.5t-54.5 83q-11 26 -11 41z" />
<glyph unicode="T" horiz-adv-x="1032" d="M10 1251q0 16 12.5 28.5t28.5 12.5h930q16 0 28.5 -12.5t12.5 -28.5t-12.5 -28.5t-28.5 -12.5h-424v-1169q0 -16 -12.5 -28.5t-28.5 -12.5t-28.5 12.5t-12.5 28.5v1169h-424q-16 0 -28.5 12.5t-12.5 28.5z" />
<glyph unicode="U" horiz-adv-x="1159" d="M78 1264q-1 4 -1 7.5t1 6.5q2 6 10 9t29 3q23 0 34 -12t11 -29v-749v-4q0 -86 32.5 -162t89 -132.5t132.5 -88t162 -31.5t161.5 31.5t132 88t90 132.5t33.5 162v4v749q0 8 -2 15.5t0 13.5t10.5 9t28.5 3q23 0 34 -12t11 -29v-749v-2q0 -104 -39 -194.5t-106.5 -158 t-158.5 -106.5t-195 -39t-194.5 39t-158 106.5t-106.5 157.5t-39 195v751q0 7 -2 15z" />
<glyph unicode="V" horiz-adv-x="1032" d="M39 1237q-4 8 -4 16q0 9 5 17q9 14 21 18q10 4 19 4q8 0 15 -3q16 -7 22 -23l401 -1110l400 1112q6 16 24 22q10 4 19 4q6 0 10 -2q16 -6 23 -22q4 -8 4 -16q0 -7 -3 -15l-436 -1202q-14 -37 -39 -37q-20 0 -29.5 12.5t-13.5 24.5z" />
<glyph unicode="W" horiz-adv-x="1587" d="M4 1237q-4 8 -4 16q0 9 5 17q9 14 22 18q10 4 18 4q7 0 15 -3q16 -7 22 -23l401 -1119l262 738q4 16 14.5 29.5t28.5 13.5t27.5 -13.5t15.5 -29.5l265 -738l399 1121q5 16 23 22q10 4 20 4q6 0 10 -2q16 -6 24 -22q4 -9 4 -17q0 -7 -3 -14l-436 -1202q-14 -37 -39 -37 q-20 0 -29.5 12.5t-13.5 24.5l-267 741l-264 -741q-14 -37 -39 -37q-20 0 -29.5 12.5t-13.5 24.5z" />
<glyph unicode="X" horiz-adv-x="1386" d="M57 1280q12 12 29.5 12t30.5 -12l575 -586l576 586q12 12 29.5 12t29.5 -12q10 -10 11 -28v-2q0 -16 -11 -27l-586 -578l584 -575q14 -14 14.5 -29t-14.5 -29q-12 -12 -28.5 -12t-28.5 12l-576 584l-575 -584q-12 -12 -28.5 -12t-29.5 12q-12 12 -12 28.5t12 29.5 l584 575l-586 578q-11 11 -11 27q0 19 11 30z" />
<glyph unicode="Y" horiz-adv-x="1206" d="M27 1252.5q0 17.5 12 27.5q15 14 29 14t28 -14l506 -504l506 504q14 14 28 14t29 -14q13 -10 13 -29q0 -16 -13 -28l-522 -523v-659q0 -16 -12.5 -28.5t-28.5 -12.5t-28.5 12.5t-12.5 28.5v659l-522 523q-12 12 -12 29.5z" />
<glyph unicode="Z" horiz-adv-x="1071" d="M29 1251q0 16 12 28.5t29 12.5h934q16 0 28 -12.5t12 -28.5t-10 -28l-897 -1155l867 14q16 0 28 -12.5t12 -28.5t-12 -28.5t-28 -12.5h-918q-20 0 -35.5 4t-19.5 25q-4 14 1 27.5t13 23.5l889 1141l-864 -11q-16 0 -28.5 12.5t-12.5 28.5z" />
<glyph unicode="[" horiz-adv-x="331" d="M82 -260v1511q0 16 12 28.5t29 12.5h162q16 0 28.5 -12t12.5 -29q0 -16 -12.5 -28.5t-28.5 -12.5l-121 4v-1437l121 4q16 0 28.5 -12.5t12.5 -28.5t-12.5 -28.5t-28.5 -12.5h-162q-16 0 -28.5 12.5t-12.5 28.5z" />
<glyph unicode="\" horiz-adv-x="618" d="M14 1251q-6 16 0.5 32t22.5 22t31.5 0.5t21.5 -21.5l514 -1227q6 -16 0 -31.5t-22 -21.5t-31.5 0t-22.5 23z" />
<glyph unicode="]" horiz-adv-x="335" d="M6 -260q0 16 12.5 28.5t28.5 12.5l121 -4v1437l-121 -4q-16 0 -28.5 12.5t-12.5 28.5t12.5 28.5t28.5 12.5h162q16 0 28.5 -12t12.5 -29v-1511q0 -16 -12.5 -28.5t-28.5 -12.5h-162q-16 0 -28.5 12.5t-12.5 28.5z" />
<glyph unicode="^" horiz-adv-x="804" d="M39 940.5q0 17.5 10 30.5l318 315q8 8 15 14.5t24 6.5q12 0 18 -5.5t16 -15.5l316 -315q10 -12 10 -30t-10 -30q-12 -10 -29.5 -10t-30.5 10l-293 310l-294 -310q-12 -10 -30 -10t-30 10q-10 12 -10 29.5z" />
<glyph unicode="_" horiz-adv-x="933" d="M80 41q0 16 12 28.5t29 12.5h692q16 0 28.5 -12.5t12.5 -28.5t-12.5 -28.5t-28.5 -12.5h-692q-16 0 -28.5 12.5t-12.5 28.5z" />
<glyph unicode="`" horiz-adv-x="229" d="M18.5 1225.5q-6.5 23.5 16.5 48.5q20 23 44.5 19.5t37.5 -15.5q37 -41 55 -67.5t24.5 -44t3.5 -28t-10 -18.5q-6 -6 -15 -9t-24.5 3t-42 23.5t-69.5 52.5q-14 12 -20.5 35.5z" />
<glyph unicode="a" horiz-adv-x="1132" d="M57 494q0 102 36 192t99.5 157.5t150.5 106.5t189 39q84 0 157 -26.5t130.5 -66.5t95 -85t52.5 -84v113q0 78 14 112.5t45 34.5q23 0 23 -22v-942q0 -23 -23 -23q-31 0 -45 35t-14 112v113q-18 -49 -60.5 -96t-99.5 -84t-128 -59.5t-147 -22.5q-102 0 -189 39 t-150.5 106.5t-99.5 157.5t-36 193zM145 494q0 -86 28 -163t79 -134.5t122.5 -90t157.5 -32.5t165 32.5t137.5 90t93.5 134.5t35 163q0 84 -36 160.5t-95.5 134t-137.5 91t-162 33.5q-86 0 -157.5 -32.5t-122.5 -90t-79 -134t-28 -162.5z" />
<glyph unicode="b" d="M82 23v1239q0 16 12 28.5t29 12.5q16 0 28.5 -12.5t12.5 -28.5v-5v-530q14 39 52 84t95.5 85t130 66.5t156.5 26.5q102 0 189 -39t150.5 -106.5t99.5 -157.5t36 -192t-36 -192.5t-99.5 -158t-150.5 -106.5t-189 -39q-76 0 -145.5 21.5t-128 58.5t-100.5 84t-60 98v-113 q0 -78 -14 -112.5t-46 -34.5q-23 0 -22 23zM168 494q0 -86 35 -163t93 -134.5t137 -90t165 -32.5t157.5 32.5t123 90t79 134.5t27.5 163t-27.5 162.5t-79 134t-123 90t-157.5 32.5q-84 0 -162 -33.5t-137 -91t-95 -134t-36 -160.5z" />
<glyph unicode="c" horiz-adv-x="958" d="M53 494q0 102 39 192t106.5 157.5t157.5 106.5t193 39q86 0 178 -27.5t156 -91.5q12 -16 12 -30q0 -18 -12 -31q-16 -12 -31 -12q-19 0 -31 12q-53 49 -123.5 76.5t-148.5 27.5q-86 0 -161 -32.5t-130 -90t-87 -134t-32 -162.5t32 -163t87 -134.5t130 -90t161 -32.5 q76 0 149.5 27.5t126.5 80.5q12 12 31 13q14 0 31 -13q12 -16 12 -30q0 -18 -12 -31q-25 -20 -58.5 -42t-75.5 -40.5t-93.5 -29.5t-110.5 -11q-102 0 -192.5 39t-158 106.5t-106.5 157.5t-39 193z" />
<glyph unicode="d" d="M20 494q0 102 36 192t99.5 157.5t150.5 106.5t190 39q84 0 156.5 -26.5t130 -66.5t95 -85t52.5 -84v530v5q0 16 12 28.5t29 12.5q16 0 28.5 -12.5t12.5 -28.5v-1239q0 -23 -23 -23q-31 0 -45 35t-14 112v113q-18 -51 -60.5 -98t-100.5 -84t-128 -58.5t-145 -21.5 q-102 0 -189.5 39t-151 106.5t-99.5 157.5t-36 193zM109 494q0 -86 27.5 -163t78.5 -134.5t123 -90t158 -32.5t164.5 32.5t137 90t93.5 134.5t35 163q0 84 -36 160.5t-95.5 134t-137 91t-161.5 33.5q-86 0 -158 -32.5t-123 -90t-78.5 -134t-27.5 -162.5z" />
<glyph unicode="e" d="M57 494q0 115 41 207t112 156.5t164 99t195 34.5t190.5 -38t153 -104.5t101.5 -156.5t37 -194q0 -16 -12.5 -28.5t-34.5 -12.5h-861q6 -80 41 -149.5t89.5 -121t126 -81t153.5 -29.5q76 0 149.5 27.5t126.5 80.5q12 12 31 12.5t31 -12.5q10 -12 12 -29.5t-12 -31.5 q-25 -20 -58.5 -42t-75.5 -40t-93.5 -29.5t-110.5 -11.5q-102 0 -192.5 39t-158 105.5t-106.5 156.5t-39 193zM145 535h822q-6 80 -38 149.5t-84 120.5t-123 80.5t-153 29.5t-155.5 -29.5t-131 -80.5t-93 -121t-44.5 -149z" />
<glyph unicode="f" horiz-adv-x="579" d="M8 807q0 20 12.5 32.5t28.5 12.5h8l168 -8v110q2 152 79 251.5t218 101.5q16 0 28.5 -12.5t12.5 -28.5t-12 -28.5t-29 -12.5q-104 -2 -158.5 -80t-56.5 -191v-110l174 8h8q45 0 46 -45q0 -16 -12.5 -28.5t-33.5 -12.5h-6l-176 6v-731q0 -16 -12 -28.5t-29 -12.5 q-16 0 -28.5 12.5t-12.5 28.5v731l-168 -6h-8q-16 0 -28.5 12.5t-12.5 28.5z" />
<glyph unicode="g" horiz-adv-x="1120" d="M49 494q0 102 36 192t99.5 157.5t150.5 106.5t189 39q84 0 157 -26.5t130 -66.5t95 -85t52 -84v113q0 78 14.5 112.5t45.5 34.5q23 0 22 -22v-928q0 -121 -49 -219.5t-134 -158.5t-197 -75q-30 -5 -61 -5q-86 0 -181 32q-18 6 -31.5 20t-1.5 41q8 16 24.5 21.5t32.5 -2.5 q72 -23 142 -23q24 0 48 2q93 11 165.5 56t116.5 123.5t44 187.5v223q-18 -51 -60 -98t-100.5 -84t-128 -58.5t-145.5 -21.5q-102 0 -189 39t-150.5 106.5t-99.5 157.5t-36 193zM137 494q0 -86 28 -163t79 -134.5t122.5 -90t157.5 -32.5t165 32.5t137.5 90t93 134.5 t34.5 163q0 84 -35.5 160.5t-95 134t-137.5 91t-162 33.5q-86 0 -157.5 -32.5t-122.5 -90t-79 -134t-28 -162.5z" />
<glyph unicode="h" horiz-adv-x="1130" d="M82 43v1219q0 16 12 28.5t29 12.5q16 0 28.5 -12.5t12.5 -28.5v-535q14 39 52 84t95.5 85t130 66.5t156.5 26.5q102 0 189 -39t150.5 -105.5t99.5 -156.5t36 -192v-453q0 -18 -11 -30.5t-30 -12.5q-18 0 -29.5 12.5t-11.5 30.5v451q0 86 -28.5 162.5t-81 134t-125 90 t-158.5 32.5q-84 0 -163 -34.5t-139 -93t-96 -135.5t-36 -161v-446q0 -18 -11.5 -30.5t-29.5 -12.5t-29.5 12.5t-11.5 30.5z" />
<glyph unicode="i" horiz-adv-x="237" d="M63 1233q0 25 16.5 42t41.5 17t42 -17.5t17 -41.5q0 -25 -17.5 -41t-41.5 -16q-25 0 -41.5 16t-16.5 41zM80 41v909q0 16 12.5 28.5t28.5 12.5t28.5 -12t12.5 -29v-909q0 -16 -12.5 -28.5t-28.5 -12.5t-28.5 12.5t-12.5 28.5z" />
<glyph unicode="j" horiz-adv-x="249" d="M-172 -274q0 16 12.5 28.5t32.5 12.5q100 4 153.5 80.5t57.5 189.5v913q0 16 12.5 28.5t28.5 12.5t28.5 -12t12.5 -29v-913q-2 -152 -79 -251t-218 -101q-16 0 -28.5 12.5t-12.5 28.5zM68 1233q0 25 16 42t41 17t42 -17.5t17 -41.5q0 -25 -17 -41t-42 -16t-41 16t-16 41z " />
<glyph unicode="k" horiz-adv-x="1075" d="M80 1264q-1 4 -1 7.5t1 6.5q2 6 10 9t29 3q23 0 34 -12t11 -29v-870l784 622q14 10 30.5 8.5t27.5 -16.5q9 -11 9 -26q0 -20 -16 -31l-356 -283l356 -592q7 -13 7 -24q0 -19 -21 -31q-10 -7 -21 -7q-6 0 -10 1q-16 4 -24 18l-352 584l-414 -330v-231q0 -16 -12.5 -28.5 t-28.5 -12.5t-28.5 12.5t-12.5 28.5v1208q0 7 -2 15z" />
<glyph unicode="l" horiz-adv-x="243" d="M82 41v1208q0 16 12.5 28.5t28.5 12.5t28.5 -12t12.5 -29v-1208q0 -16 -12.5 -28.5t-28.5 -12.5t-28.5 12.5t-12.5 28.5z" />
<glyph unicode="m" horiz-adv-x="1595" d="M82 43v924q0 22 20 22h2q31 0 45.5 -34.5t14.5 -112.5v-72q6 35 29.5 74t65.5 71.5t103.5 53t143.5 20.5q135 -2 210 -71.5t103 -182.5q10 39 35 83t69 82t107.5 63.5t149.5 25.5q100 0 165.5 -39t104.5 -105.5t53.5 -156.5t14.5 -192v-453q0 -18 -11.5 -30.5 t-29.5 -12.5t-29.5 12.5t-11.5 30.5v451q0 86 -9.5 162.5t-38 134t-82 90t-139.5 32.5q-84 0 -144 -33.5t-100 -90t-59.5 -132t-21.5 -161.5v-453q0 -18 -11.5 -30.5t-29.5 -12.5t-29.5 12.5t-11.5 30.5v451q0 86 -9.5 162.5t-37 134t-79.5 90t-138 32.5q-84 0 -146.5 -34.5 t-103.5 -93t-61.5 -135.5t-20.5 -161v-446q0 -18 -11.5 -30.5t-29.5 -12.5t-29.5 12.5t-11.5 30.5z" />
<glyph unicode="n" horiz-adv-x="1144" d="M82 43v924q0 22 20 22h2q31 0 45.5 -34.5t14.5 -112.5v-115q14 39 54 84t99.5 85t134 66.5t158.5 26.5q102 0 187.5 -39t147 -105.5t95 -156.5t33.5 -192v-453q0 -18 -11 -30.5t-30 -12.5q-18 0 -29.5 12.5t-11.5 30.5v451q0 86 -26.5 162.5t-76.5 134t-121 90t-157 32.5 q-84 0 -164.5 -34.5t-143 -93t-100.5 -135.5t-38 -161v-446q0 -18 -11.5 -30.5t-29.5 -12.5t-29.5 12.5t-11.5 30.5z" />
<glyph unicode="o" horiz-adv-x="1105" d="M57 496q0 102 39 192t106.5 157.5t158 106.5t192.5 39t192.5 -39t158 -106.5t106.5 -157.5t39 -192t-39 -192.5t-106.5 -158t-158 -106.5t-192.5 -39t-192.5 39t-158 106.5t-106.5 158t-39 192.5zM143 496q0 -86 32 -163t87 -134.5t130 -90t161 -32.5t160.5 32.5t130 90 t87.5 134.5t32 163t-32 162.5t-87.5 134t-130 90t-160.5 32.5t-161 -32.5t-130 -90t-87 -134t-32 -162.5z" />
<glyph unicode="p" horiz-adv-x="1093" d="M82 -272v1239q0 23 22 22q31 0 45.5 -34.5t14.5 -112.5v-113q18 51 60 98t100.5 84t128 58.5t145.5 21.5q102 0 189 -39t150.5 -106.5t99.5 -157.5t36 -192t-36 -192.5t-99.5 -158t-150.5 -106.5t-189 -39q-84 0 -156.5 26.5t-130 66.5t-95.5 85t-52 84v-530v-4 q0 -16 -12.5 -28.5t-28.5 -12.5t-28.5 12t-12.5 29zM168 496q0 -84 36 -161t95 -134.5t137 -91t162 -33.5q86 0 157.5 32.5t123 90t79 134.5t27.5 163t-27.5 162.5t-79 134t-123 90t-157.5 32.5t-165 -32.5t-137 -90t-93 -134t-35 -162.5z" />
<glyph unicode="q" d="M20 496q0 102 36 192t99.5 157.5t150.5 106.5t190 39q76 0 145.5 -21.5t127.5 -58.5t100 -84t61 -98v113q0 78 14 112.5t45 34.5q23 0 23 -22v-1239q0 -16 -12.5 -28.5t-28.5 -12.5t-28.5 12t-12.5 29v4v530q-14 -39 -52 -84t-95.5 -85t-130 -66.5t-156.5 -26.5 q-102 0 -189.5 39t-151 106.5t-99.5 157.5t-36 193zM109 496q0 -86 27.5 -163t78.5 -134.5t123 -90t158 -32.5q84 0 161.5 33.5t137 91t95.5 134.5t36 161q0 86 -35 162.5t-93.5 134t-137 90t-164.5 32.5t-158 -32.5t-123 -90t-78.5 -134t-27.5 -162.5z" />
<glyph unicode="r" horiz-adv-x="708" d="M82 43v924q0 22 20 22h2q31 0 45.5 -34.5t14.5 -112.5v-109q8 33 42 78t87 84t123.5 66.5t152.5 27.5q29 0 55.5 -5t45.5 -11q39 -12 37 -49q-4 -18 -17.5 -28.5t-32.5 -8.5q-27 2 -48 12t-52 10q-80 0 -150.5 -33.5t-125 -91t-86 -134.5t-31.5 -161v-446 q0 -18 -11.5 -30.5t-29.5 -12.5t-29.5 12.5t-11.5 30.5z" />
<glyph unicode="s" horiz-adv-x="1003" d="M51 281q0 25 14.5 35t24.5 10q23 0 34 -13.5t11 -29.5q0 -31 27.5 -66t76 -64.5t114 -50t141.5 -20.5h17q125 0 193 28q74 30 109 67.5t41 69.5t6 34q0 88 -96 136t-270 58q-133 6 -209 35t-116 67.5t-50 79.5t-10 76q0 45 21.5 91t67.5 83t120.5 60.5t179.5 23.5 q80 0 154.5 -18.5t132 -52t93 -80.5t35.5 -107q0 -16 -6 -24.5t-14 -11.5t-15 -4l-8 -1q-29 0 -35 18.5t-6 22.5q0 31 -24.5 62.5t-68.5 56.5t-103.5 41t-128.5 16q-98 0 -158.5 -20.5t-94.5 -49t-46 -58t-12 -48.5q0 -33 11 -61.5t44 -51t92 -39t154 -22.5 q84 -6 164.5 -21.5t144 -46t102.5 -82t39 -128.5q0 -76 -39 -129.5t-101.5 -87t-143 -49t-166.5 -15.5q-66 0 -144 19.5t-144.5 55.5t-110.5 88t-44 118z" />
<glyph unicode="t" horiz-adv-x="536" d="M8 909q0 20 12.5 32.5t28.5 12.5l178 -8l-4 275q0 16 13.5 29.5t29.5 13.5t29.5 -13.5t13.5 -29.5l-4 -275q12 0 39 1t55.5 3t53 3t32.5 1q45 0 45 -45q0 -16 -12 -28.5t-33 -12.5q-8 0 -33.5 1t-55 2t-55.5 2t-36 1l4 -831q0 -16 -13 -29.5t-30 -13.5q-16 0 -29.5 13.5 t-13.5 29.5l4 831l-178 -6q-16 0 -28.5 12.5t-12.5 28.5z" />
<glyph unicode="u" horiz-adv-x="1144" d="M70 494v452q0 18 11 30.5t30 12.5q18 0 29.5 -12t11.5 -31v-450q0 -86 26.5 -163t76.5 -134.5t120.5 -90t156.5 -32.5q84 0 165 34.5t143.5 93t100.5 135.5t38 161v446q0 18 11 30.5t30 12.5q18 0 29.5 -12t11.5 -31v-923q0 -23 -23 -23q-31 0 -45 35t-14 112v115 q-14 -39 -54 -84t-99.5 -85t-134.5 -66.5t-159 -26.5q-102 0 -187 39t-146.5 105.5t-95 156.5t-33.5 193z" />
<glyph unicode="v" horiz-adv-x="917" d="M39 932q-3 8 -3 16t3 16q6 16 22 25q6 1 11 1q10 0 20 -4q14 -7 21 -23l346 -824l346 824q7 16 21 23q9 4 19 4q6 0 11 -1q16 -9 22 -25q3 -9 4 -17q0 -8 -3 -15l-373 -893q-4 -10 -16.5 -24.5t-30.5 -14.5t-28.5 11.5t-16.5 27.5z" />
<glyph unicode="w" horiz-adv-x="1673" d="M51 946q0 12 6.5 24.5t18.5 18.5q4 2 10 2q12 0 24.5 -8t16.5 -20l346 -824l324 824q4 10 15 19t26 9q12 0 23 -9t16 -19l323 -824l346 824q4 12 16.5 20t24.5 8q6 0 10 -2q12 -6 18.5 -18.5t6.5 -24.5q0 -10 -2 -14l-373 -893q-4 -10 -16 -24.5t-31 -14.5 q-18 0 -28.5 11.5t-16.5 27.5l-319 811l-316 -811q-4 -10 -16 -24.5t-31 -14.5q-18 0 -28.5 11.5t-16.5 27.5l-375 893q-2 4 -2 14z" />
<glyph unicode="x" horiz-adv-x="1159" d="M74 40.5q0 16.5 10 27.5l444 426l-442 426q-12 12 -12 30.5t12 30.5q9 9 24 9h4q18 -1 29 -13l437 -434l436 434q12 12 30 13h3q15 0 24 -9q12 -12 12 -30.5t-12 -30.5l-444 -424l446 -428q10 -10 10 -26.5t-10 -27.5q-11 -12 -29 -13h-4q-15 0 -24 9l-438 434l-439 -434 q-9 -9 -24 -9h-3q-18 1 -30 13q-10 10 -10 26.5z" />
<glyph unicode="y" horiz-adv-x="1101" d="M35 494v450q0 45 43 45t43 -45v-450q0 -86 27.5 -163t79 -134.5t123 -90t157.5 -32.5t165 32.5t138 90t94 134.5t35 163v8v50v133v259q0 45 43 45t43 -45v-854v-4v-49q0 -121 -48 -216t-132 -153.5t-198 -75.5q-36 -5 -74 -5q-81 0 -171 24q-27 8 -33.5 26.5t1.5 34.5 t24.5 21.5t32.5 -2.5q72 -23 142 -23q24 0 48 2q93 11 165.5 56t116.5 123.5t44 187.5v223q-18 -51 -60 -98t-100.5 -84t-128 -58.5t-145.5 -21.5q-102 0 -189.5 39t-151 106.5t-99 157.5t-35.5 193z" />
<glyph unicode="z" horiz-adv-x="1071" d="M37 37q0 16 14 31l819 845l-759 -4q-16 0 -27.5 11.5t-11.5 27.5t11 29.5t28 13.5h850q16 0 27 -11t11 -28q0 -14 -14 -28l-821 -848l835 4q16 0 28.5 -12.5t12.5 -28.5t-12 -27.5t-29 -11.5h-925q-16 0 -26.5 10t-10.5 27z" />
<glyph unicode="{" horiz-adv-x="372" d="M25 504q0 16 12 28.5t29 12.5h6q16 2 27.5 15t11.5 30v674q0 16 12 28.5t29 12.5h161q16 0 28.5 -12.5t12.5 -28.5t-12 -28.5t-29 -12.5l-120 4v-639q-2 -49 -35 -84q16 -16 25.5 -39t9.5 -47v-629l120 4q16 0 28.5 -12t12.5 -29q0 -16 -12 -28.5t-29 -12.5h-161 q-16 0 -28.5 12.5t-12.5 28.5v666q0 16 -11.5 28.5t-27.5 16.5h-6q-16 0 -28.5 12t-12.5 29z" />
<glyph unicode="|" horiz-adv-x="245" d="M82 -231v1495q0 16 12.5 28.5t28.5 12.5t28.5 -12.5t12.5 -28.5v-1495q0 -16 -12.5 -28.5t-28.5 -12.5t-28.5 12t-12.5 29z" />
<glyph unicode="}" horiz-adv-x="372" d="M18 -248q0 16 12.5 28.5t28.5 12.5l121 -4v629q0 25 9.5 47t25.5 39q-33 35 -35 84v639l-121 -4q-16 0 -28.5 12t-12.5 29q0 16 12.5 28.5t28.5 12.5h162q16 0 28.5 -12.5t12.5 -28.5v-674q0 -16 11.5 -29.5t27.5 -15.5h6q16 0 28.5 -12.5t12.5 -28.5t-12 -28.5 t-29 -12.5h-6q-16 -4 -27.5 -16.5t-11.5 -28.5v-666q0 -16 -12 -28.5t-29 -12.5h-162q-16 0 -28.5 12.5t-12.5 28.5z" />
<glyph unicode="~" horiz-adv-x="1267" d="M68 477q0 68 23.5 129.5t65.5 109.5t98 76.5t124 28.5q55 0 98 -15t76 -38t58.5 -51.5t47.5 -54.5q20 -25 40 -51.5t45.5 -48t61.5 -36t91 -14.5q51 0 92 22.5t69.5 60.5t44 86t15.5 99q0 16 12.5 28.5t28.5 12.5t28.5 -12t12.5 -29q0 -68 -23.5 -130t-63.5 -109t-95 -76 t-121 -29q-55 0 -97 12.5t-76 34t-59.5 48t-48.5 57.5q-18 25 -42.5 52.5t-54.5 50t-64.5 36.5t-75.5 14q-51 0 -93 -22.5t-72 -59t-47 -84t-17 -98.5q0 -16 -12.5 -28.5t-28.5 -12.5t-28.5 12.5t-12.5 28.5z" />
<glyph unicode="&#xa1;" horiz-adv-x="208" d="M43 977q0 -25 17.5 -41.5t42.5 -16.5t41 16.5t16 41.5t-16.5 42t-40.5 17q-25 0 -42.5 -17.5t-17.5 -41.5zM62 -215q0 -16 12 -28.5t29 -12.5q16 0 28.5 12t12.5 29v909q0 16 -12.5 28.5t-28.5 12.5t-28.5 -12.5t-12.5 -28.5v-909z" />
<glyph unicode="&#xa2;" horiz-adv-x="886" d="M23 494q0 98 35.5 184t97 152.5t144.5 107.5t179 49v193q0 16 12.5 28.5t28.5 12.5t28.5 -12.5t12.5 -28.5v-193q78 -4 157 -32.5t134 -84.5q12 -16 12 -30q0 -18 -12 -31q-16 -12 -31 -12q-18 0 -30 12q-53 49 -124 76.5t-149 27.5q-86 0 -160.5 -32.5t-130 -90 t-87 -134t-31.5 -162.5t31.5 -163t87 -134.5t130 -90t160.5 -32.5q76 0 149.5 27.5t127.5 80.5q12 12 30 13q14 0 31 -13q12 -16 12 -30q0 -18 -12 -31q-45 -39 -118.5 -76t-176.5 -45v-193q0 -16 -12 -28t-29 -12q-16 0 -28.5 12t-12.5 28v193q-96 6 -179 48t-144.5 107.5 t-97 152.5t-35.5 186z" />
<glyph unicode="&#xa3;" horiz-adv-x="1083" d="M29 561q0 20 12 32.5t29 12.5h8l168 -8v305q0 80 30.5 151.5t83 124t124 83t151.5 30.5q113 0 202 -60.5t138 -154.5q8 -16 8 -36.5t-16 -30.5q-10 -6 -27 -5t-27 21q-49 96 -115.5 140t-162.5 44q-63 0 -119.5 -24.5t-97.5 -65.5t-65.5 -97t-24.5 -120v-305l174 8h8 q45 0 45 -45q0 -16 -12.5 -28.5t-32.5 -12.5h-6l-176 6v-360q16 25 35.5 39t40 20t39 7t30.5 1q66 0 112 -21.5t79 -68.5t65.5 -60t79.5 -13q23 0 47.5 8t46 25.5t34.5 41t13 54.5q0 14 11.5 24t23.5 10q16 0 26.5 -10t10.5 -24q0 -53 -21.5 -91t-53.5 -61.5t-68.5 -35 t-69.5 -11.5q-78 0 -121 20.5t-74 65.5q-29 43 -61.5 56.5t-79.5 13.5q-59 0 -102 -29t-43 -86v-4q-2 -16 -13.5 -26.5t-27.5 -10.5t-27.5 9t-13.5 26v491l-168 -6h-8q-16 0 -28.5 12.5t-12.5 28.5z" />
<glyph unicode="&#xa5;" horiz-adv-x="1210" d="M31 1252.5q0 17.5 12 27.5q29 29 57 0l506 -504l506 504q29 29 57 0q12 -10 12.5 -27.5t-12.5 -29.5l-473 -473h250q16 0 28.5 -12.5t12.5 -28.5t-12 -28.5t-29 -12.5h-299v-164h299q16 0 28.5 -12.5t12.5 -28.5t-12 -28.5t-29 -12.5h-299v-381q0 -16 -12 -28.5 t-29 -12.5q-16 0 -28.5 12.5t-12.5 28.5v381h-311q-16 0 -28.5 12t-12.5 29q0 16 12.5 28.5t28.5 12.5h311v164h-311q-16 0 -28.5 12t-12.5 29q0 16 12.5 28.5t28.5 12.5h262l-473 473q-12 12 -12 29.5z" />
<glyph unicode="&#xa6;" horiz-adv-x="260" d="M82 -266v682q0 16 12.5 28.5t28.5 12.5t28.5 -12.5t12.5 -28.5v-682q0 -16 -12.5 -28.5t-28.5 -12.5t-28.5 12t-12.5 29zM82 582v682q0 16 12.5 28.5t28.5 12.5t28.5 -12.5t12.5 -28.5v-682q0 -16 -12.5 -28.5t-28.5 -12.5t-28.5 12t-12.5 29z" />
<glyph unicode="&#xa8;" horiz-adv-x="534" d="M66 1362q0 25 16 42t41 17t42 -17.5t17 -41.5q0 -25 -17.5 -41t-41.5 -16q-25 0 -41 16t-16 41zM352 1362q0 25 16.5 42t41.5 17t42 -17.5t17 -41.5q0 -25 -17.5 -41t-41.5 -16q-25 0 -41.5 16t-16.5 41z" />
<glyph unicode="&#xa9;" horiz-adv-x="1400" d="M55 645q0 133 50.5 251t138.5 205t205.5 138t250.5 51t251 -51t205 -138t138.5 -205t51.5 -251t-51.5 -251t-138.5 -206t-204.5 -138t-251.5 -50q-133 0 -250.5 50t-205.5 138t-138.5 206t-50.5 251zM137 645q0 -117 44 -219t121 -179t179.5 -121t218.5 -44 q117 0 219.5 44t179.5 121t121 179t44 219t-44 219.5t-121 179t-179.5 120.5t-219.5 44t-219 -44t-179 -120.5t-121 -179t-44 -219.5zM287 647q0 84 31.5 159t87 130t130 87t158.5 32q72 0 146.5 -23.5t128.5 -75.5q8 -10 9 -25.5t-9 -25.5t-25 -10q-12 0 -26 10 q-45 41 -101.5 61.5t-122.5 20.5q-72 0 -132 -26.5t-104 -72.5t-68.5 -108.5t-24.5 -132.5q0 -72 24.5 -133t68.5 -107.5t104.5 -73t131.5 -26.5q63 0 123 19.5t105 64.5q10 10 26.5 12.5t26.5 -14.5q20 -25 -4 -49q-37 -37 -107.5 -68.5t-169.5 -31.5q-84 0 -158.5 31.5 t-130 87t-87 130t-31.5 158.5z" />
<glyph unicode="&#xab;" horiz-adv-x="985" d="M23 494q0 16 6 23t14 15l449 449q12 10 29.5 10t29.5 -10q10 -12 10 -29.5t-10 -29.5l-451 -426l453 -426q10 -12 10 -30t-10 -30q-12 -10 -29.5 -10t-29.5 10l-451 449q-10 10 -15 16t-5 19zM371 494q0 16 6 23t14 15l449 449q12 10 29.5 10t29.5 -10q10 -12 10 -29.5 t-10 -29.5l-450 -426l452 -426q10 -12 10 -30t-10 -30q-12 -10 -29.5 -10t-29.5 10l-451 449q-10 10 -15 16t-5 19z" />
<glyph unicode="&#xad;" horiz-adv-x="933" d="M80 616q0 16 12 28.5t29 12.5h692q16 0 28.5 -12.5t12.5 -28.5t-12.5 -28.5t-28.5 -12.5h-692q-16 0 -28.5 12.5t-12.5 28.5z" />
<glyph unicode="&#xae;" horiz-adv-x="1400" d="M55 645q0 133 50.5 251t138.5 205t205.5 138t250.5 51t251 -51t205 -138t138.5 -205t51.5 -251t-51.5 -251t-138.5 -206t-204.5 -138t-251.5 -50q-133 0 -250.5 50t-205.5 138t-138.5 206t-50.5 251zM137 645q0 -117 44 -219t121 -179t179.5 -121t218.5 -44 q117 0 219.5 44t179.5 121t121 179t44 219t-44 219.5t-121 179t-179.5 120.5t-219.5 44t-219 -44t-179 -120.5t-121 -179t-44 -219.5zM573 266v740q0 23 23 22q31 0 45 -35t14 -112v-47q8 33 33 67.5t60.5 63t78.5 46t91 17.5q16 0 28 -1t31 -7q39 -12 37 -49 q-4 -18 -18.5 -25.5t-32.5 -3.5q-12 2 -16.5 3t-8.5 2t-11 1h-22q-47 0 -92 -27.5t-80 -74.5t-56.5 -113.5t-21.5 -142.5v-324q0 -18 -11 -30.5t-30 -12.5q-18 0 -29.5 12.5t-11.5 30.5z" />
<glyph unicode="&#xb1;" horiz-adv-x="782" d="M4 41q0 16 12.5 28.5t28.5 12.5h692q16 0 28.5 -12.5t12.5 -28.5t-12 -28.5t-29 -12.5h-692q-16 0 -28.5 12.5t-12.5 28.5zM4 844q0 16 12.5 28.5t28.5 12.5l309 -4l-4 309q0 16 12.5 28.5t28.5 12.5t28.5 -12.5t12.5 -28.5l-4 -309l309 4q16 0 28.5 -12.5t12.5 -28.5 t-12 -28.5t-29 -12.5l-309 4l4 -309q0 -16 -12.5 -28.5t-28.5 -12.5t-28.5 12t-12.5 29l4 309l-309 -4q-16 0 -28.5 12t-12.5 29z" />
<glyph unicode="&#xb4;" horiz-adv-x="229" d="M26 1138.5q-3 10.5 3 28t24.5 44t55.5 67.5q12 12 36.5 15.5t44.5 -19.5q23 -25 17 -48.5t-21 -35.5q-43 -35 -69.5 -52.5t-42 -23.5t-24.5 -3t-15 9q-6 8 -9 18.5z" />
<glyph unicode="&#xb7;" horiz-adv-x="200" d="M41 645q0 25 16.5 42.5t40.5 17.5q25 0 42.5 -17.5t17.5 -42.5t-17.5 -41t-42.5 -16t-41 16t-16 41z" />
<glyph unicode="&#xb8;" horiz-adv-x="339" d="M35 -221q0 18 12 30.5t31 12.5q18 0 29.5 -12.5t11.5 -30.5q4 -18 16 -32.5t31 -14.5q23 0 35 14t12 33q0 20 -12.5 33.5t-34.5 13.5q-16 0 -28.5 13.5t-12.5 35.5v162h84v-131q39 -12 64.5 -47t25.5 -80q0 -55 -38 -93t-95 -38q-55 0 -93 38t-38 93z" />
<glyph unicode="&#xba;" horiz-adv-x="890" d="M47 41q0 16 12.5 28.5t28.5 12.5h715q16 0 28.5 -12.5t12.5 -28.5t-12.5 -28.5t-28.5 -12.5h-715q-16 0 -28.5 12.5t-12.5 28.5zM51 600q0 82 31 153.5t85 126t126 85t153 30.5q82 0 154 -30.5t126 -85t85 -126t31 -153.5t-31 -153.5t-85 -126t-126 -85t-154 -30.5 t-153.5 30.5t-125.5 85t-85 126t-31 153.5zM133 600q0 -66 24.5 -122t67.5 -99t99.5 -67.5t121.5 -24.5q63 0 121 24.5t101 67.5t67.5 99.5t24.5 121.5q0 63 -24.5 120.5t-67.5 100.5t-100.5 67.5t-121.5 24.5q-66 0 -122 -24.5t-99 -67.5t-67.5 -100.5t-24.5 -120.5z" />
<glyph unicode="&#xbb;" horiz-adv-x="985" d="M74 39.5q0 17.5 10 30.5l453 426l-451 426q-10 12 -10 29.5t10 29.5q12 10 29.5 10t29.5 -10l449 -449q8 -8 14 -15t6 -23q0 -12 -5 -18.5t-15 -16.5l-451 -449q-12 -10 -29.5 -10t-29.5 10q-10 12 -10 29.5zM422 39.5q0 17.5 10 30.5l453 426l-451 426q-10 12 -10 29.5 t10 29.5q12 10 29.5 10t30.5 -10l448 -449q8 -8 14.5 -15t6.5 -23q0 -12 -5.5 -18.5t-15.5 -16.5l-450 -449q-12 -10 -30 -10t-30 10q-10 12 -10 29.5z" />
<glyph unicode="&#xbf;" horiz-adv-x="1032" d="M24 219q13 84 59 164t136 137q41 27 99.5 45t97.5 25v63q0 16 12.5 27.5t28.5 11.5t28.5 -11.5t12.5 -27.5v-96q0 -16 -12.5 -26.5t-28.5 -10.5q-23 0 -50.5 -6t-54 -15.5t-51 -21.5t-43.5 -25q-70 -49 -107.5 -111.5t-50 -127t-3 -124t33.5 -102.5q43 -78 102.5 -127 t127 -68.5t141.5 -10t143 48.5q66 37 116 87t73 115q14 39 45 33q20 -4 27.5 -19.5t3.5 -31.5q-23 -80 -87.5 -144.5t-140.5 -105.5q-92 -49 -181 -59t-169 13.5t-146.5 77.5t-115.5 134q-31 51 -45 128t-1 161zM396 936q0 25 17 41t42 16t41 -16t16 -41t-16 -42.5 t-41 -17.5t-42 17.5t-17 42.5z" />
<glyph unicode="&#xc0;" horiz-adv-x="1032" d="M2 55l467 1196q2 8 0 15.5t0 13.5t9.5 9t27.5 3q12 0 25.5 -6t19.5 -20l473 -1211q6 -16 -1 -31.5t-24 -21.5q-16 -6 -31.5 1t-21.5 24l-127 321h-614l-125 -321q-6 -16 -21.5 -23.5t-32.5 -1.5q-16 6 -23 21.5t-1 31.5zM237 430h551l-276 703zM337.5 1473.5 q-6.5 23.5 16.5 48.5q20 23 44.5 19.5t37.5 -15.5q37 -41 55 -67.5t24.5 -44t3.5 -28t-10 -18.5q-6 -6 -15 -9t-24.5 3t-42 23.5t-69.5 52.5q-14 12 -20.5 35.5z" />
<glyph unicode="&#xc1;" d="M37 55l467 1196q2 8 0 15.5t0 13.5t9.5 9t27.5 3q12 0 25.5 -6t19.5 -20l473 -1211q6 -16 -1 -31.5t-24 -21.5q-16 -6 -31.5 1t-21.5 24l-127 321h-614l-125 -321q-6 -16 -21.5 -23.5t-32.5 -1.5q-16 6 -23 21.5t-1 31.5zM272 430h551l-276 703zM511 1386.5q-3 10.5 3 28 t24.5 44t55.5 67.5q12 12 36.5 15.5t44.5 -19.5q23 -25 17 -48.5t-21 -35.5q-43 -35 -69.5 -52.5t-42 -23.5t-24.5 -3t-15 9q-6 8 -9 18.5z" />
<glyph unicode="&#xc2;" horiz-adv-x="1038" d="M10 55l467 1196q2 8 0 15.5t0 13.5t9.5 9t27.5 3q12 0 25.5 -6t19.5 -20l473 -1211q6 -16 -1 -31.5t-24 -21.5q-16 -6 -31.5 1t-21.5 24l-127 321h-614l-125 -321q-6 -16 -21.5 -23.5t-32.5 -1.5q-16 6 -23 21.5t-1 31.5zM245 430h551l-276 703zM277 1412q2 20 12 30 l193 170q6 4 14 10t23 6q12 0 20 -5t16 -11l195 -170q12 -10 12 -32t-12 -34t-31.5 -10t-31.5 12l-168 158l-164 -158q-12 -10 -30.5 -13t-33.5 11q-16 16 -14 36z" />
<glyph unicode="&#xc3;" horiz-adv-x="1040" d="M10 55l467 1196q2 8 0 15.5t0 13.5t9.5 9t27.5 3q12 0 25.5 -6t19.5 -20l473 -1211q6 -16 -1 -31.5t-24 -21.5q-16 -6 -31.5 1t-21.5 24l-127 321h-614l-125 -321q-6 -16 -21.5 -23.5t-32.5 -1.5q-16 6 -23 21.5t-1 31.5zM148 1401q0 47 14 95.5t41 86t64.5 62t84.5 24.5 q43 0 75 -11t54.5 -29.5t38 -41t29.5 -42.5q8 -14 18.5 -32t24.5 -34t31.5 -27.5t42.5 -11.5q33 0 59.5 17.5t45 45t29.5 61.5t11 65q0 16 12.5 28t28.5 12t28.5 -12t12.5 -28q0 -47 -18.5 -94.5t-49 -86.5t-71.5 -62.5t-88 -23.5q-35 0 -59.5 11.5t-43 28t-32 37 t-25.5 38.5q-12 16 -24.5 36.5t-31 38t-42 30t-56.5 12.5q-31 0 -53 -18.5t-37.5 -47.5t-23.5 -62.5t-8 -64.5q0 -16 -12.5 -28.5t-28.5 -12.5t-28.5 12.5t-12.5 28.5zM245 430h551l-276 703z" />
<glyph unicode="&#xc4;" horiz-adv-x="1034" d="M6 55l467 1196q2 8 0 15.5t0 13.5t9.5 9t27.5 3q12 0 25.5 -6t19.5 -20l473 -1211q6 -16 -1 -31.5t-24 -21.5q-16 -6 -31.5 1t-21.5 24l-127 321h-614l-125 -321q-6 -16 -21.5 -23.5t-32.5 -1.5q-16 6 -23 21.5t-1 31.5zM241 430h551l-276 703zM310 1481q0 25 16 42 t41 17t42 -17.5t17 -41.5q0 -25 -17.5 -41t-41.5 -16q-25 0 -41 16t-16 41zM596 1481q0 25 16.5 42t41.5 17t42 -17.5t17 -41.5q0 -25 -17.5 -41t-41.5 -16q-25 0 -41.5 16t-16.5 41z" />
<glyph unicode="&#xc6;" horiz-adv-x="1427" d="M16 55l467 1196q2 8 0 15.5t0 13.5t9.5 9t27.5 3h852q16 0 28.5 -12t12.5 -29q0 -16 -12 -28.5t-29 -12.5h-764v-583h631q16 0 28.5 -12.5t12.5 -28.5t-12.5 -28.5t-28.5 -12.5h-631v-463h764q16 0 28.5 -12.5t12.5 -28.5t-12 -28.5t-29 -12.5h-809q-16 0 -26.5 12.5 t-10.5 28.5v307h-307l-125 -321q-6 -16 -21.5 -23.5t-31.5 -1.5t-23.5 21.5t-1.5 31.5zM252 430h274v703z" />
<glyph unicode="&#xc7;" horiz-adv-x="1251" d="M53 643q0 133 50.5 251t138.5 205t205.5 138t250.5 51q82 0 148.5 -14t124 -43t110 -71t107.5 -99q12 -12 12 -29q0 -16 -12 -28t-29 -13q-19 1 -35 19q-92 100 -194.5 148t-231.5 48q-117 0 -219 -44t-179 -120.5t-121 -179t-44 -219.5t44 -219t121 -179t179.5 -121 t218.5 -44q129 0 239 52t187 144q10 12 18.5 15.5t16.5 3.5q16 0 29 -12q12 -12 12 -27q0 -18 -16 -35q-53 -57 -105.5 -99t-109 -69.5t-123 -41t-148.5 -13.5q-133 0 -250.5 50t-205.5 138t-138.5 206t-50.5 251zM535 -221q0 18 12 30.5t31 12.5q18 0 29.5 -12.5 t11.5 -30.5q4 -18 16 -32.5t31 -14.5q23 0 35 14t12 33q0 20 -12.5 33.5t-34.5 13.5q-16 0 -28.5 13.5t-12.5 35.5v162h84v-131q39 -12 64.5 -47t25.5 -80q0 -55 -38 -93t-95 -38q-55 0 -93 38t-38 93z" />
<glyph unicode="&#xc8;" horiz-adv-x="985" d="M72 1272q0 8 5 14t21 6h826q16 0 28.5 -12t12.5 -29q0 -16 -12.5 -28.5t-28.5 -12.5h-764v-583h631q16 0 28.5 -12.5t12.5 -28.5t-12.5 -28.5t-28.5 -12.5h-631v-463h764q16 0 28.5 -12.5t12.5 -28.5t-12.5 -28.5t-28.5 -12.5h-809q-16 0 -26.5 12.5t-10.5 28.5v1196 q0 8 -3 17.5t-3 17.5zM385.5 1473.5q-6.5 23.5 16.5 48.5q20 23 44.5 19.5t37.5 -15.5q37 -41 55 -67.5t24.5 -44t3.5 -28t-10 -18.5q-6 -6 -15 -9t-24.5 3t-42 23.5t-69.5 52.5q-14 12 -20.5 35.5z" />
<glyph unicode="&#xc9;" horiz-adv-x="985" d="M72 1272q0 8 5 14t21 6h826q16 0 28.5 -12t12.5 -29q0 -16 -12.5 -28.5t-28.5 -12.5h-764v-583h631q16 0 28.5 -12.5t12.5 -28.5t-12.5 -28.5t-28.5 -12.5h-631v-463h764q16 0 28.5 -12.5t12.5 -28.5t-12.5 -28.5t-28.5 -12.5h-809q-16 0 -26.5 12.5t-10.5 28.5v1196 q0 8 -3 17.5t-3 17.5zM485 1388.5q-3 10.5 3 28t24.5 44t55.5 67.5q12 12 36.5 15.5t44.5 -19.5q23 -25 17 -48.5t-21 -35.5q-43 -35 -69.5 -52.5t-42 -23.5t-24.5 -3t-15 9q-6 8 -9 18.5z" />
<glyph unicode="&#xca;" horiz-adv-x="991" d="M74 1272q0 8 5 14t21 6h826q16 0 28.5 -12t12.5 -29q0 -16 -12.5 -28.5t-28.5 -12.5h-764v-583h631q16 0 28.5 -12.5t12.5 -28.5t-12.5 -28.5t-28.5 -12.5h-631v-463h764q16 0 28.5 -12.5t12.5 -28.5t-12.5 -28.5t-28.5 -12.5h-809q-16 0 -26.5 12.5t-10.5 28.5v1196 q0 8 -3 17.5t-3 17.5zM281 1412q2 20 12 30l193 170q6 4 14 10t23 6q12 0 20 -5t16 -11l195 -170q12 -10 12 -32t-12 -34t-31.5 -10t-31.5 12l-168 158l-164 -158q-12 -10 -30.5 -13t-33.5 11q-16 16 -14 36z" />
<glyph unicode="&#xcb;" horiz-adv-x="978" d="M70 1272q0 8 5 14t21 6h826q16 0 28.5 -12t12.5 -29q0 -16 -12.5 -28.5t-28.5 -12.5h-764v-583h631q16 0 28.5 -12.5t12.5 -28.5t-12.5 -28.5t-28.5 -12.5h-631v-463h764q16 0 28.5 -12.5t12.5 -28.5t-12.5 -28.5t-28.5 -12.5h-809q-16 0 -26.5 12.5t-10.5 28.5v1196 q0 8 -3 17.5t-3 17.5zM318 1477q0 25 16 42t41 17t42 -17.5t17 -41.5q0 -25 -17.5 -41t-41.5 -16q-25 0 -41 16t-16 41zM604 1477q0 25 16.5 42t41.5 17t42 -17.5t17 -41.5q0 -25 -17.5 -41t-41.5 -16q-25 0 -41.5 16t-16.5 41z" />
<glyph unicode="&#xcc;" horiz-adv-x="247" d="M-26.5 1473.5q-6.5 23.5 16.5 48.5q20 23 44.5 19.5t37.5 -15.5q37 -41 55 -67.5t24.5 -44t3.5 -28t-10 -18.5q-6 -6 -15 -9t-24.5 3t-42 23.5t-69.5 52.5q-14 12 -20.5 35.5zM90 1264.5q-2 7.5 0 13.5t10 9t29 3q23 0 34 -12t11 -29v-1208q0 -16 -12.5 -28.5 t-28.5 -12.5t-28.5 12.5t-12.5 28.5v1208q0 8 -2 15.5z" />
<glyph unicode="&#xcd;" horiz-adv-x="243" d="M86 1264.5q-2 7.5 0 13.5t10 9t29 3q23 0 34 -12t11 -29v-1208q0 -16 -12.5 -28.5t-28.5 -12.5t-28.5 12.5t-12.5 28.5v1208q0 8 -2 15.5zM100 1386.5q-3 10.5 3 28t24.5 44t55.5 67.5q12 12 36.5 15.5t44.5 -19.5q23 -25 17 -48.5t-21 -35.5q-43 -35 -69.5 -52.5 t-42 -23.5t-24.5 -3t-15 9q-6 8 -9 18.5z" />
<glyph unicode="&#xce;" horiz-adv-x="233" d="M-121 1412q2 20 12 30l193 170q6 4 14 10t23 6q12 0 20 -5t16 -11l195 -170q12 -10 12 -32t-12 -34t-31.5 -10t-31.5 12l-168 158l-164 -158q-12 -10 -30.5 -13t-33.5 11q-16 16 -14 36zM84 1264.5q-2 7.5 0 13.5t10 9t29 3q23 0 34 -12t11 -29v-1208q0 -16 -12.5 -28.5 t-28.5 -12.5t-28.5 12.5t-12.5 28.5v1208q0 8 -2 15.5z" />
<glyph unicode="&#xcf;" horiz-adv-x="243" d="M-75 1479q0 25 16 42t41 17t42 -17.5t17 -41.5q0 -25 -17.5 -41t-41.5 -16q-25 0 -41 16t-16 41zM94 1264.5q-2 7.5 0 13.5t10 9t29 3q23 0 34 -12t11 -29v-1208q0 -16 -12.5 -28.5t-28.5 -12.5t-28.5 12.5t-12.5 28.5v1208q0 8 -2 15.5zM211 1479q0 25 16.5 42t41.5 17 t42 -17.5t17 -41.5q0 -25 -17.5 -41t-41.5 -16q-25 0 -41.5 16t-16.5 41z" />
<glyph unicode="&#xd0;" horiz-adv-x="968" d="M-78 729q0 16 12.5 29.5t28.5 11.5l129 -6l-6 487q0 8 -2 15.5t0 13.5t10 9t29 3h149q133 0 251 -51t206 -139t139.5 -206t51.5 -251t-51.5 -251t-139.5 -206t-205.5 -138t-251.5 -50h-145q-16 0 -28.5 12.5t-12.5 28.5l6 653l-129 -6q-16 -2 -28.5 11.5t-12.5 29.5z M162 694l6 -612h104q117 0 219.5 44t179.5 121t122 179t45 219t-45 219.5t-122 179t-179.5 121.5t-219.5 45h-104l-6 -446l125 6q16 2 28.5 -11.5t12.5 -29.5t-12.5 -29.5t-28.5 -11.5z" />
<glyph unicode="&#xd1;" horiz-adv-x="978" d="M75 1281q1 5 9 8t31 3q12 0 21.5 -9t23.5 -23l9 -10q9 -9 41 -44t93.5 -105.5t168 -194.5t266 -311t386.5 -454v1112q0 8 -3 15.5t-2 12.5t10.5 8t31.5 3q33 0 39 -11t6 -28v-1212q0 -16 -12 -28.5t-29 -12.5q-16 0 -24 6t-17 17l-964 1116v-1098q0 -16 -12.5 -28.5 t-28.5 -12.5t-28.5 12.5t-12.5 28.5v1212q0 8 -2 15.5t-1 12.5zM123 1399q0 47 14 95.5t41 86t64.5 62t84.5 24.5q43 0 75 -11t54.5 -29.5t38 -41t29.5 -42.5q8 -14 18.5 -32t24.5 -34t31.5 -27.5t42.5 -11.5q33 0 59.5 17.5t45 45t29.5 61.5t11 65q0 16 12.5 28t28.5 12 t28.5 -12t12.5 -28q0 -47 -18.5 -94.5t-49 -86.5t-71.5 -62.5t-88 -23.5q-35 0 -59.5 11.5t-43 28t-32 37t-25.5 38.5q-12 16 -24.5 36.5t-31 38t-42 30t-56.5 12.5q-31 0 -53 -18.5t-37.5 -47.5t-23.5 -62.5t-8 -64.5q0 -16 -12.5 -28.5t-28.5 -12.5t-28.5 12.5t-12.5 28.5 z" />
<glyph unicode="&#xd2;" horiz-adv-x="1384" d="M43 645q0 133 50.5 251t138.5 205t205.5 138t250.5 51t251 -51t205 -138t138 -205t51 -251t-51 -251t-138 -206t-205 -138t-251 -50t-250.5 50t-205.5 138t-138.5 206t-50.5 251zM125 645q0 -117 44 -219t121 -179t179.5 -121t218.5 -44q117 0 219.5 44t179 121 t120.5 179t44 219t-44 219.5t-120.5 179t-179 120.5t-219.5 44t-219 -44t-179 -120.5t-121 -179t-44 -219.5zM542.5 1473.5q-6.5 23.5 16.5 48.5q20 23 44.5 19.5t37.5 -15.5q37 -41 55 -67.5t24.5 -44t3.5 -28t-10 -18.5q-6 -6 -15 -9t-24.5 3t-42 23.5t-69.5 52.5 q-14 12 -20.5 35.5z" />
<glyph unicode="&#xd3;" horiz-adv-x="1384" d="M43 645q0 133 50.5 251t138.5 205t205.5 138t250.5 51t251 -51t205 -138t138 -205t51 -251t-51 -251t-138 -206t-205 -138t-251 -50t-250.5 50t-205.5 138t-138.5 206t-50.5 251zM125 645q0 -117 44 -219t121 -179t179.5 -121t218.5 -44q117 0 219.5 44t179 121 t120.5 179t44 219t-44 219.5t-120.5 179t-179 120.5t-219.5 44t-219 -44t-179 -120.5t-121 -179t-44 -219.5zM669 1386.5q-3 10.5 3 28t24.5 44t55.5 67.5q12 12 36.5 15.5t44.5 -19.5q23 -25 17 -48.5t-21 -35.5q-43 -35 -69.5 -52.5t-42 -23.5t-24.5 -3t-15 9 q-6 8 -9 18.5z" />
<glyph unicode="&#xd4;" horiz-adv-x="1400" d="M49 645q0 133 50.5 251t138.5 205t205.5 138t250.5 51t251 -51t205 -138t138 -205t51 -251t-51 -251t-138 -206t-205 -138t-251 -50t-250.5 50t-205.5 138t-138.5 206t-50.5 251zM131 645q0 -117 44 -219t121 -179t179.5 -121t218.5 -44q117 0 219.5 44t179 121 t120.5 179t44 219t-44 219.5t-120.5 179t-179 120.5t-219.5 44t-219 -44t-179 -120.5t-121 -179t-44 -219.5zM459 1410q2 20 12 30l193 170q6 4 14 10t23 6q12 0 20 -5t16 -11l195 -170q12 -10 12 -32t-12 -34t-31.5 -10t-31.5 12l-168 158l-164 -158q-12 -10 -30.5 -13 t-33.5 11q-16 16 -14 36z" />
<glyph unicode="&#xd5;" horiz-adv-x="1400" d="M49 645q0 133 50.5 251t138.5 205t205.5 138t250.5 51t251 -51t205 -138t138 -205t51 -251t-51 -251t-138 -206t-205 -138t-251 -50t-250.5 50t-205.5 138t-138.5 206t-50.5 251zM131 645q0 -117 44 -219t121 -179t179.5 -121t218.5 -44q117 0 219.5 44t179 121 t120.5 179t44 219t-44 219.5t-120.5 179t-179 120.5t-219.5 44t-219 -44t-179 -120.5t-121 -179t-44 -219.5zM334 1401q0 47 14 95.5t41 86t64.5 62t84.5 24.5q43 0 75 -11t54.5 -29.5t38 -41t29.5 -42.5q8 -14 18.5 -32t24.5 -34t31.5 -27.5t42.5 -11.5q33 0 59.5 17.5 t45 45t29.5 61.5t11 65q0 16 12.5 28t28.5 12t28.5 -12t12.5 -28q0 -47 -18.5 -94.5t-49 -86.5t-71.5 -62.5t-88 -23.5q-35 0 -59.5 11.5t-43 28t-32 37t-25.5 38.5q-12 16 -24.5 36.5t-31 38t-42 30t-56.5 12.5q-31 0 -53 -18.5t-37.5 -47.5t-23.5 -62.5t-8 -64.5 q0 -16 -12.5 -28.5t-28.5 -12.5t-28.5 12.5t-12.5 28.5z" />
<glyph unicode="&#xd6;" horiz-adv-x="1384" d="M43 645q0 133 50.5 251t138.5 205t205.5 138t250.5 51t251 -51t205 -138t138 -205t51 -251t-51 -251t-138 -206t-205 -138t-251 -50t-250.5 50t-205.5 138t-138.5 206t-50.5 251zM125 645q0 -117 44 -219t121 -179t179.5 -121t218.5 -44q117 0 219.5 44t179 121 t120.5 179t44 219t-44 219.5t-120.5 179t-179 120.5t-219.5 44t-219 -44t-179 -120.5t-121 -179t-44 -219.5zM498 1479q0 25 16 42t41 17t42 -17.5t17 -41.5q0 -25 -17.5 -41t-41.5 -16q-25 0 -41 16t-16 41zM784 1479q0 25 16.5 42t41.5 17t42 -17.5t17 -41.5 q0 -25 -17.5 -41t-41.5 -16q-25 0 -41.5 16t-16.5 41z" />
<glyph unicode="&#xd7;" horiz-adv-x="739" d="M76 347q0 18 12 28l231 223l-231 225q-12 10 -12 28t12 30t29.5 12t27.5 -12l224 -234l225 234q10 12 27.5 12t29.5 -12t12.5 -29.5t-12.5 -28.5l-233 -225l233 -223q12 -10 12.5 -27.5t-12.5 -30.5q-12 -12 -29.5 -12t-27.5 12l-225 232l-224 -232q-10 -12 -27.5 -12 t-29.5 12t-12 30z" />
<glyph unicode="&#xd8;" horiz-adv-x="1392" d="M51 645q0 133 50.5 251t138.5 205t205.5 138t250.5 51q53 0 103.5 -8t97.5 -25l21 54q6 16 21.5 22t31.5 0t22 -21.5t2 -31.5l-20 -53q82 -39 149.5 -98.5t115.5 -135t74.5 -164t26.5 -184.5q0 -133 -51 -251t-138 -206t-205 -138t-251 -50q-106 0 -198 31l-27 -68 q-6 -16 -21.5 -21t-31.5 1t-21.5 21.5t-1.5 31.5l25 63q-82 39 -149.5 99.5t-117 136.5t-76 165t-26.5 185zM133 645q0 -84 23.5 -160.5t64.5 -143.5t99.5 -119t130.5 -85l415 1045q-41 12 -83 19t-87 7q-117 0 -219 -44t-179 -120.5t-121 -179t-44 -219.5zM528 106 q80 -25 168 -24q117 0 219.5 44t179 121t121 179t44.5 219q0 82 -24 159t-65 142.5t-99 117.5t-128 87z" />
<glyph unicode="&#xd9;" horiz-adv-x="1157" d="M80 1264.5q-2 7.5 0 13.5t10 9t29 3q23 0 34 -12t11 -29v-749v-4q0 -86 32.5 -162t89 -132.5t132.5 -88t162 -31.5t161.5 31.5t132 88t90 132.5t33.5 162v4v749q0 8 -2 15.5t0 13.5t10.5 9t28.5 3q23 0 34 -12t11 -29v-749v-2q0 -104 -39 -194.5t-106.5 -158 t-158.5 -106.5t-195 -39t-194.5 39t-158 106.5t-106.5 157.5t-39 195v751q0 8 -2 15.5zM456.5 1475.5q-6.5 23.5 16.5 48.5q20 23 44.5 19.5t37.5 -15.5q37 -41 55 -67.5t24.5 -44t3.5 -28t-10 -18.5q-6 -6 -15 -9t-24.5 3t-42 23.5t-69.5 52.5q-14 12 -20.5 35.5z" />
<glyph unicode="&#xda;" horiz-adv-x="1075" d="M45 1264.5q-2 7.5 0 13.5t10 9t29 3q23 0 34 -12t11 -29v-749v-4q0 -86 32.5 -162t89 -132.5t132.5 -88t162 -31.5t161.5 31.5t132 88t90 132.5t33.5 162v4v749q0 8 -2 15.5t0 13.5t10.5 9t28.5 3q23 0 34 -12t11 -29v-749v-2q0 -104 -39 -194.5t-106.5 -158 t-158.5 -106.5t-195 -39t-194.5 39t-158 106.5t-106.5 157.5t-39 195v751q0 8 -2 15.5zM536 1386.5q-3 10.5 3 28t24.5 44t55.5 67.5q12 12 36.5 15.5t44.5 -19.5q23 -25 17 -48.5t-21 -35.5q-43 -35 -69.5 -52.5t-42 -23.5t-24.5 -3t-15 9q-6 8 -9 18.5z" />
<glyph unicode="&#xdb;" horiz-adv-x="1157" d="M78 1264.5q-2 7.5 0 13.5t10 9t29 3q23 0 34 -12t11 -29v-749v-4q0 -86 32.5 -162t89 -132.5t132.5 -88t162 -31.5t161.5 31.5t132 88t90 132.5t33.5 162v4v749q0 8 -2 15.5t0 13.5t10.5 9t28.5 3q23 0 34 -12t11 -29v-749v-2q0 -104 -39 -194.5t-106.5 -158 t-158.5 -106.5t-195 -39t-194.5 39t-158 106.5t-106.5 157.5t-39 195v751q0 8 -2 15.5zM342 1412q2 20 12 30l193 170q6 4 14 10t23 6q12 0 20 -5t16 -11l195 -170q12 -10 12 -32t-12 -34t-31.5 -10t-31.5 12l-168 158l-164 -158q-12 -10 -30.5 -13t-33.5 11q-16 16 -14 36z " />
<glyph unicode="&#xdc;" horiz-adv-x="1128" d="M72 1264.5q-2 7.5 0 13.5t10 9t29 3q23 0 34 -12t11 -29v-749v-4q0 -86 32.5 -162t89 -132.5t132.5 -88t162 -31.5t161.5 31.5t132 88t90 132.5t33.5 162v4v749q0 8 -2 15.5t0 13.5t10.5 9t28.5 3q23 0 34 -12t11 -29v-749v-2q0 -104 -39 -194.5t-106.5 -158 t-158.5 -106.5t-195 -39t-194.5 39t-158 106.5t-106.5 157.5t-39 195v751q0 8 -2 15.5zM377 1481q0 25 16 42t41 17t42 -17.5t17 -41.5q0 -25 -17.5 -41t-41.5 -16q-25 0 -41 16t-16 41zM663 1481q0 25 16.5 42t41.5 17t42 -17.5t17 -41.5q0 -25 -17.5 -41t-41.5 -16 q-25 0 -41.5 16t-16.5 41z" />
<glyph unicode="&#xdd;" horiz-adv-x="1183" d="M23 1252.5q0 17.5 12 27.5q29 29 57 0l506 -504l506 504q28 29 57 0q12 -10 12.5 -27.5t-12.5 -29.5l-522 -523v-659q0 -16 -12.5 -28.5t-28.5 -12.5t-28.5 12.5t-12.5 28.5v659l-522 523q-12 12 -12 29.5zM587 1386.5q-3 10.5 3 28t24.5 44t55.5 67.5q12 12 36.5 15.5 t44.5 -19.5q23 -25 17 -48.5t-21 -35.5q-43 -35 -69.5 -52.5t-42 -23.5t-24.5 -3t-15 9q-6 8 -9 18.5z" />
<glyph unicode="&#xdf;" horiz-adv-x="786" d="M90 1266.5q-2 7.5 0 13.5t10.5 9t28.5 3h227q63 0 119.5 -24.5t97.5 -65.5t66 -97t25 -120q0 -84 -40 -152.5t-106 -109.5q98 -45 158.5 -137t60.5 -207q0 -80 -29.5 -148.5t-82 -120t-121 -81t-148.5 -29.5h-39h-6q-39 0 -39 39q0 16 11.5 28.5t27.5 12.5h4h41 q61 0 116.5 23.5t95.5 64.5t63.5 95t23.5 116q0 61 -23.5 115.5t-63.5 95.5t-95 64.5t-117 23.5h-45q-39 0 -39 39q0 16 11.5 28.5t27.5 12.5h4h41q47 0 88 18.5t72 49t48.5 71.5t17.5 88t-17.5 88t-48.5 72t-72 48t-88 17h-182v-1169q0 -16 -12 -28.5t-29 -12.5 q-16 0 -28.5 12.5t-12.5 28.5v1210q0 8 -2 15.5z" />
<glyph unicode="&#xe0;" horiz-adv-x="1110" d="M49 494q0 102 36 192t99.5 157.5t150.5 106.5t189 39q84 0 157 -26.5t130.5 -66.5t95 -85t52.5 -84v113q0 78 14 112.5t45 34.5q23 0 23 -22v-942q0 -23 -23 -23q-31 0 -45 35t-14 112v113q-18 -49 -60.5 -96t-99.5 -84t-128 -59.5t-147 -22.5q-102 0 -189 39 t-150.5 106.5t-99.5 157.5t-36 193zM137 494q0 -86 28 -163t79 -134.5t122.5 -90t157.5 -32.5t165 32.5t137.5 90t93.5 134.5t35 163q0 84 -36 160.5t-95.5 134t-137.5 91t-162 33.5q-86 0 -157.5 -32.5t-122.5 -90t-79 -134t-28 -162.5zM368.5 1188.5q-6.5 23.5 16.5 48.5 q20 23 44.5 19.5t37.5 -15.5q37 -41 55 -67.5t24.5 -44t3.5 -28t-10 -18.5q-6 -6 -15 -9t-24.5 3t-42 23.5t-69.5 52.5q-14 12 -20.5 35.5z" />
<glyph unicode="&#xe1;" horiz-adv-x="1118" d="M49 494q0 102 36 192t99.5 157.5t150.5 106.5t189 39q84 0 157 -26.5t130.5 -66.5t95 -85t52.5 -84v113q0 78 14 112.5t45 34.5q23 0 23 -22v-942q0 -23 -23 -23q-31 0 -45 35t-14 112v113q-18 -49 -60.5 -96t-99.5 -84t-128 -59.5t-147 -22.5q-102 0 -189 39 t-150.5 106.5t-99.5 157.5t-36 193zM137 494q0 -86 28 -163t79 -134.5t122.5 -90t157.5 -32.5t165 32.5t137.5 90t93.5 134.5t35 163q0 84 -36 160.5t-95.5 134t-137.5 91t-162 33.5q-86 0 -157.5 -32.5t-122.5 -90t-79 -134t-28 -162.5zM526 1101.5q-3 10.5 3 28t24.5 44 t55.5 67.5q12 12 36.5 15.5t44.5 -19.5q23 -25 17 -48.5t-21 -35.5q-43 -35 -69.5 -52.5t-42 -23.5t-24.5 -3t-15 9q-6 8 -9 18.5z" />
<glyph unicode="&#xe2;" horiz-adv-x="1130" d="M57 494q0 102 36 192t99.5 157.5t150.5 106.5t189 39q84 0 157 -26.5t130.5 -66.5t95 -85t52.5 -84v113q0 78 14 112.5t45 34.5q23 0 23 -22v-942q0 -23 -23 -23q-31 0 -45 35t-14 112v113q-18 -49 -60.5 -96t-99.5 -84t-128 -59.5t-147 -22.5q-102 0 -189 39 t-150.5 106.5t-99.5 157.5t-36 193zM145 494q0 -86 28 -163t79 -134.5t122.5 -90t157.5 -32.5t165 32.5t137.5 90t93.5 134.5t35 163q0 84 -36 160.5t-95.5 134t-137.5 91t-162 33.5q-86 0 -157.5 -32.5t-122.5 -90t-79 -134t-28 -162.5zM291 1125q2 20 12 30l193 170 q6 4 14 10t23 6q12 0 20 -5t16 -11l195 -170q12 -10 12 -32t-12 -34t-31.5 -10t-31.5 12l-168 158l-164 -158q-12 -10 -30.5 -13t-33.5 11q-16 16 -14 36z" />
<glyph unicode="&#xe3;" horiz-adv-x="1130" d="M57 494q0 102 36 192t99.5 157.5t150.5 106.5t189 39q84 0 157 -26.5t130.5 -66.5t95 -85t52.5 -84v113q0 78 14 112.5t45 34.5q23 0 23 -22v-942q0 -23 -23 -23q-31 0 -45 35t-14 112v113q-18 -49 -60.5 -96t-99.5 -84t-128 -59.5t-147 -22.5q-102 0 -189 39 t-150.5 106.5t-99.5 157.5t-36 193zM145 494q0 -86 28 -163t79 -134.5t122.5 -90t157.5 -32.5t165 32.5t137.5 90t93.5 134.5t35 163q0 84 -36 160.5t-95.5 134t-137.5 91t-162 33.5q-86 0 -157.5 -32.5t-122.5 -90t-79 -134t-28 -162.5zM168 1114q0 47 14 95.5t41 86 t64.5 62t84.5 24.5q43 0 75 -11t54.5 -29.5t38 -41t29.5 -42.5q8 -14 18.5 -32t24.5 -34t31.5 -27.5t42.5 -11.5q33 0 59.5 17.5t45 45t29.5 61.5t11 65q0 16 12.5 28t28.5 12t28.5 -12t12.5 -28q0 -47 -18.5 -94.5t-49 -86.5t-71.5 -62.5t-88 -23.5q-35 0 -59.5 11.5 t-43 28t-32 37t-25.5 38.5q-12 16 -24.5 36.5t-31 38t-42 30t-56.5 12.5q-31 0 -53 -18.5t-37.5 -47.5t-23.5 -62.5t-8 -64.5q0 -16 -12.5 -28.5t-28.5 -12.5t-28.5 12.5t-12.5 28.5z" />
<glyph unicode="&#xe4;" horiz-adv-x="1110" d="M49 494q0 102 36 192t99.5 157.5t150.5 106.5t189 39q84 0 157 -26.5t130.5 -66.5t95 -85t52.5 -84v113q0 78 14 112.5t45 34.5q23 0 23 -22v-942q0 -23 -23 -23q-31 0 -45 35t-14 112v113q-18 -49 -60.5 -96t-99.5 -84t-128 -59.5t-147 -22.5q-102 0 -189 39 t-150.5 106.5t-99.5 157.5t-36 193zM137 494q0 -86 28 -163t79 -134.5t122.5 -90t157.5 -32.5t165 32.5t137.5 90t93.5 134.5t35 163q0 84 -36 160.5t-95.5 134t-137.5 91t-162 33.5q-86 0 -157.5 -32.5t-122.5 -90t-79 -134t-28 -162.5zM342 1219q0 25 16 42t41 17 t42 -17.5t17 -41.5q0 -25 -17.5 -41t-41.5 -16q-25 0 -41 16t-16 41zM628 1219q0 25 16.5 42t41.5 17t42 -17.5t17 -41.5q0 -25 -17.5 -41t-41.5 -16q-25 0 -41.5 16t-16.5 41z" />
<glyph unicode="&#xe6;" horiz-adv-x="1933" d="M30 494q0 102 36 192t99.5 157.5t150.5 106.5t189 39q84 0 157 -26.5t130.5 -66.5t95 -85t52.5 -84v113q0 78 14 112.5t45 34.5q23 0 23 -22v-942q0 -23 -23 -23q-31 0 -45 35t-14 112v113q-18 -49 -60.5 -96t-99.5 -84t-128 -59.5t-147 -22.5q-102 0 -189 39 t-150.5 106.5t-99.5 157.5t-36 193zM118 494q0 -86 28 -163t79 -134.5t122.5 -90t157.5 -32.5t165 32.5t137.5 90t93.5 134.5t35 163q0 84 -36 160.5t-95.5 134t-137.5 91t-162 33.5q-86 0 -157.5 -32.5t-122.5 -90t-79 -134t-28 -162.5zM936 494q0 115 41 207t112 156.5 t164 99t195 34.5t190.5 -38t153 -104.5t101.5 -156.5t37 -194q0 -16 -12.5 -28.5t-34.5 -12.5h-861q6 -80 41 -149.5t89.5 -121t126 -81t153.5 -29.5q76 0 149.5 27.5t126.5 80.5q12 12 31 12.5t31 -12.5q10 -12 12 -29.5t-12 -31.5q-25 -20 -58.5 -42t-75.5 -40 t-93.5 -29.5t-110.5 -11.5q-102 0 -192.5 39t-158 105.5t-106.5 156.5t-39 193zM1024 535h822q-6 80 -38 149.5t-84 120.5t-123 80.5t-153 29.5t-155.5 -29.5t-131 -80.5t-93 -121t-44.5 -149z" />
<glyph unicode="&#xe7;" horiz-adv-x="946" d="M45 494q0 102 39 192t106.5 157.5t157.5 106.5t193 39q86 0 178 -27.5t156 -91.5q12 -16 12 -30q0 -18 -12 -31q-16 -12 -31 -12q-19 0 -31 12q-53 49 -123.5 76.5t-148.5 27.5q-86 0 -161 -32.5t-130 -90t-87 -134t-32 -162.5t32 -163t87 -134.5t130 -90t161 -32.5 q76 0 149.5 27.5t126.5 80.5q12 12 31 13q14 0 31 -13q12 -16 12 -30q0 -18 -12 -31q-25 -20 -58.5 -42t-75.5 -40.5t-93.5 -29.5t-110.5 -11q-102 0 -192.5 39t-158 106.5t-106.5 157.5t-39 193zM400 -221q0 18 12 30.5t31 12.5q18 0 29.5 -12.5t11.5 -30.5q4 -18 16 -32.5 t31 -14.5q23 0 35 14t12 33q0 20 -12.5 33.5t-34.5 13.5q-16 0 -28.5 13.5t-12.5 35.5v162h84v-131q39 -12 64.5 -47t25.5 -80q0 -55 -38 -93t-95 -38q-55 0 -93 38t-38 93z" />
<glyph unicode="&#xe8;" horiz-adv-x="1075" d="M49 494q0 115 41 207t112 156.5t164 99t195 34.5t190.5 -38t153 -104.5t101.5 -156.5t37 -194q0 -16 -12.5 -28.5t-34.5 -12.5h-861q6 -80 41 -149.5t89.5 -121t126 -81t153.5 -29.5q76 0 149.5 27.5t126.5 80.5q12 12 31 12.5t31 -12.5q10 -12 12 -29.5t-12 -31.5 q-25 -20 -58.5 -42t-75.5 -40t-93.5 -29.5t-110.5 -11.5q-102 0 -192.5 39t-158 105.5t-106.5 156.5t-39 193zM137 535h822q-6 80 -38 149.5t-84 120.5t-123 80.5t-153 29.5t-155.5 -29.5t-131 -80.5t-93 -121t-44.5 -149zM401.5 1190.5q-6.5 23.5 16.5 48.5 q20 23 44.5 19.5t37.5 -15.5q37 -41 55 -67.5t24.5 -44t3.5 -28t-10 -18.5q-6 -6 -15 -9t-24.5 3t-42 23.5t-69.5 52.5q-14 12 -20.5 35.5z" />
<glyph unicode="&#xe9;" horiz-adv-x="1075" d="M49 494q0 115 41 207t112 156.5t164 99t195 34.5t190.5 -38t153 -104.5t101.5 -156.5t37 -194q0 -16 -12.5 -28.5t-34.5 -12.5h-861q6 -80 41 -149.5t89.5 -121t126 -81t153.5 -29.5q76 0 149.5 27.5t126.5 80.5q12 12 31 12.5t31 -12.5q10 -12 12 -29.5t-12 -31.5 q-25 -20 -58.5 -42t-75.5 -40t-93.5 -29.5t-110.5 -11.5q-102 0 -192.5 39t-158 105.5t-106.5 156.5t-39 193zM137 535h822q-6 80 -38 149.5t-84 120.5t-123 80.5t-153 29.5t-155.5 -29.5t-131 -80.5t-93 -121t-44.5 -149zM546 1103.5q-3 10.5 3 28t24.5 44t55.5 67.5 q12 12 36.5 15.5t44.5 -19.5q23 -25 17 -48.5t-21 -35.5q-43 -35 -69.5 -52.5t-42 -23.5t-24.5 -3t-15 9q-6 8 -9 18.5z" />
<glyph unicode="&#xea;" horiz-adv-x="1097" d="M57 494q0 115 41 207t112 156.5t164 99t195 34.5t190.5 -38t153 -104.5t101.5 -156.5t37 -194q0 -16 -12.5 -28.5t-34.5 -12.5h-861q6 -80 41 -149.5t89.5 -121t126 -81t153.5 -29.5q76 0 149.5 27.5t126.5 80.5q12 12 31 12.5t31 -12.5q10 -12 12 -29.5t-12 -31.5 q-25 -20 -58.5 -42t-75.5 -40t-93.5 -29.5t-110.5 -11.5q-102 0 -192.5 39t-158 105.5t-106.5 156.5t-39 193zM145 535h822q-6 80 -38 149.5t-84 120.5t-123 80.5t-153 29.5t-155.5 -29.5t-131 -80.5t-93 -121t-44.5 -149zM315 1127q2 20 12 30l193 170q6 4 14 10t23 6 q12 0 20 -5t16 -11l195 -170q12 -10 12 -32t-12 -34t-31.5 -10t-31.5 12l-168 158l-164 -158q-12 -10 -30.5 -13t-33.5 11q-16 16 -14 36z" />
<glyph unicode="&#xeb;" horiz-adv-x="1075" d="M49 494q0 115 41 207t112 156.5t164 99t195 34.5t190.5 -38t153 -104.5t101.5 -156.5t37 -194q0 -16 -12.5 -28.5t-34.5 -12.5h-861q6 -80 41 -149.5t89.5 -121t126 -81t153.5 -29.5q76 0 149.5 27.5t126.5 80.5q12 12 31 12.5t31 -12.5q10 -12 12 -29.5t-12 -31.5 q-25 -20 -58.5 -42t-75.5 -40t-93.5 -29.5t-110.5 -11.5q-102 0 -192.5 39t-158 105.5t-106.5 156.5t-39 193zM137 535h822q-6 80 -38 149.5t-84 120.5t-123 80.5t-153 29.5t-155.5 -29.5t-131 -80.5t-93 -121t-44.5 -149zM342 1221q0 25 16 42t41 17t42 -17.5t17 -41.5 q0 -25 -17.5 -41t-41.5 -16q-25 0 -41 16t-16 41zM628 1221q0 25 16.5 42t41.5 17t42 -17.5t17 -41.5q0 -25 -17.5 -41t-41.5 -16q-25 0 -41.5 16t-16.5 41z" />
<glyph unicode="&#xec;" horiz-adv-x="221" d="M-53.5 1186.5q-6.5 23.5 16.5 48.5q20 23 45 19.5t37 -15.5q37 -41 55.5 -67.5t24.5 -44t3 -27.5t-9 -19q-6 -6 -15.5 -9t-25 3t-42 23.5t-69.5 52.5q-14 12 -20.5 35.5zM72 41q0 -16 12 -28.5t29 -12.5q16 0 28.5 12.5t12.5 28.5v909q0 16 -12.5 28.5t-28.5 12.5 t-28.5 -12t-12.5 -29v-909z" />
<glyph unicode="&#xed;" horiz-adv-x="237" d="M78 41v909q0 16 12.5 28.5t28.5 12.5t28.5 -12t12.5 -29v-909q0 -16 -12.5 -28.5t-28.5 -12.5t-28.5 12.5t-12.5 28.5zM91 1099.5q-3 10.5 3 28t24.5 44t55.5 67.5q12 12 37 15.5t45 -19.5q23 -25 16.5 -48.5t-20.5 -35.5q-43 -35 -69.5 -52.5t-42 -23.5t-25 -3t-15.5 9 q-6 8 -9 18.5z" />
<glyph unicode="&#xee;" horiz-adv-x="251" d="M-116.5 1127.5q1.5 19.5 12.5 29.5l192 170q6 4 14.5 10t22.5 6q12 0 20.5 -5t16.5 -11l194 -170q12 -10 12 -31.5t-12 -33.5t-31.5 -10.5t-31.5 12.5l-168 157l-164 -157q-12 -10 -30.5 -13.5t-32.5 11.5q-16 16 -14.5 35.5zM86 41q0 -16 12.5 -28.5t28.5 -12.5 t28.5 12.5t12.5 28.5v909q0 16 -12.5 28.5t-28.5 12.5t-28.5 -12t-12.5 -29v-909z" />
<glyph unicode="&#xef;" horiz-adv-x="247" d="M-78 1214q0 25 16.5 42.5t41.5 17.5t42 -17.5t17 -42.5t-17.5 -41t-41.5 -16q-25 0 -41.5 16t-16.5 41zM84 41v909q0 16 12.5 28.5t28.5 12.5t28.5 -12t12.5 -29v-909q0 -16 -12.5 -28.5t-28.5 -12.5t-28.5 12.5t-12.5 28.5zM209 1214q0 25 16.5 42.5t40.5 17.5 q25 0 42.5 -17.5t17.5 -42.5t-17.5 -41t-42.5 -16t-41 16t-16 41z" />
<glyph unicode="&#xf1;" horiz-adv-x="1130" d="M72 43v924q0 23 22 22q31 0 45.5 -34.5t14.5 -112.5v-115q14 39 54 84t99.5 85t134 66.5t158.5 26.5q102 0 187.5 -39t147 -105.5t95 -156.5t33.5 -192v-453q0 -18 -11 -30.5t-30 -12.5q-18 0 -29.5 12.5t-11.5 30.5v451q0 86 -26.5 162.5t-76.5 134t-121 90t-157 32.5 q-84 0 -164.5 -34.5t-143 -93t-100.5 -135.5t-38 -161v-446q0 -18 -11.5 -30.5t-29.5 -12.5t-29.5 12.5t-11.5 30.5zM203 1114q0 47 14 95.5t41 86t64.5 62t84.5 24.5q43 0 75 -11t54.5 -29.5t38 -41t29.5 -42.5q8 -14 18.5 -32t24.5 -34t31.5 -27.5t42.5 -11.5 q33 0 59.5 17.5t45 45t29.5 61.5t11 65q0 16 12.5 28t28.5 12t28.5 -12t12.5 -28q0 -47 -18.5 -94.5t-49 -86.5t-71.5 -62.5t-88 -23.5q-35 0 -59.5 11.5t-43 28t-32 37t-25.5 38.5q-12 16 -24.5 36.5t-31 38t-42 30t-56.5 12.5q-31 0 -53 -18.5t-37.5 -47.5t-23.5 -62.5 t-8 -64.5q0 -16 -12.5 -28.5t-28.5 -12.5t-28.5 12.5t-12.5 28.5z" />
<glyph unicode="&#xf2;" horiz-adv-x="1073" d="M43 496q0 102 39 192t106.5 157.5t158 106.5t192.5 39t192.5 -39t158 -106.5t106.5 -157.5t39 -192t-39 -192.5t-106.5 -158t-158 -106.5t-192.5 -39t-192.5 39t-158 106.5t-106.5 158t-39 192.5zM129 496q0 -86 32 -163t87 -134.5t130 -90t161 -32.5t160.5 32.5t130 90 t87.5 134.5t32 163t-32 162.5t-87.5 134t-130 90t-160.5 32.5t-161 -32.5t-130 -90t-87 -134t-32 -162.5zM376.5 1188.5q-6.5 23.5 16.5 48.5q20 23 44.5 19.5t37.5 -15.5q37 -41 55 -67.5t24.5 -44t3.5 -28t-10 -18.5q-6 -6 -15 -9t-24.5 3t-42 23.5t-69.5 52.5 q-14 12 -20.5 35.5z" />
<glyph unicode="&#xf3;" horiz-adv-x="1073" d="M43 496q0 102 39 192t106.5 157.5t158 106.5t192.5 39t192.5 -39t158 -106.5t106.5 -157.5t39 -192t-39 -192.5t-106.5 -158t-158 -106.5t-192.5 -39t-192.5 39t-158 106.5t-106.5 158t-39 192.5zM129 496q0 -86 32 -163t87 -134.5t130 -90t161 -32.5t160.5 32.5t130 90 t87.5 134.5t32 163t-32 162.5t-87.5 134t-130 90t-160.5 32.5t-161 -32.5t-130 -90t-87 -134t-32 -162.5zM538 1101.5q-3 10.5 3 28t24.5 44t55.5 67.5q12 12 36.5 15.5t44.5 -19.5q23 -25 17 -48.5t-21 -35.5q-43 -35 -69.5 -52.5t-42 -23.5t-24.5 -3t-15 9q-6 8 -9 18.5z " />
<glyph unicode="&#xf4;" horiz-adv-x="1105" d="M57 496q0 102 39 192t106.5 157.5t158 106.5t192.5 39t192.5 -39t158 -106.5t106.5 -157.5t39 -192t-39 -192.5t-106.5 -158t-158 -106.5t-192.5 -39t-192.5 39t-158 106.5t-106.5 158t-39 192.5zM143 496q0 -86 32 -163t87 -134.5t130 -90t161 -32.5t160.5 32.5t130 90 t87.5 134.5t32 163t-32 162.5t-87.5 134t-130 90t-160.5 32.5t-161 -32.5t-130 -90t-87 -134t-32 -162.5zM309 1127q2 20 12 30l193 170q6 4 14 10t23 6q12 0 20 -5t16 -11l195 -170q12 -10 12 -32t-12 -34t-31.5 -10t-31.5 12l-168 158l-164 -158q-12 -10 -30.5 -13 t-33.5 11q-16 16 -14 36z" />
<glyph unicode="&#xf5;" horiz-adv-x="1073" d="M43 496q0 102 39 192t106.5 157.5t158 106.5t192.5 39t192.5 -39t158 -106.5t106.5 -157.5t39 -192t-39 -192.5t-106.5 -158t-158 -106.5t-192.5 -39t-192.5 39t-158 106.5t-106.5 158t-39 192.5zM129 496q0 -86 32 -163t87 -134.5t130 -90t161 -32.5t160.5 32.5t130 90 t87.5 134.5t32 163t-32 162.5t-87.5 134t-130 90t-160.5 32.5t-161 -32.5t-130 -90t-87 -134t-32 -162.5zM162 1116q0 47 14 95.5t41 86t64.5 62t84.5 24.5q43 0 75 -11t54.5 -29.5t38 -41t29.5 -42.5q8 -14 18.5 -32t24.5 -34t31.5 -27.5t42.5 -11.5q33 0 59.5 17.5t45 45 t29.5 61.5t11 65q0 16 12.5 28t28.5 12t28.5 -12t12.5 -28q0 -47 -18.5 -94.5t-49 -86.5t-71.5 -62.5t-88 -23.5q-35 0 -59.5 11.5t-43 28t-32 37t-25.5 38.5q-12 16 -24.5 36.5t-31 38t-42 30t-56.5 12.5q-31 0 -53 -18.5t-37.5 -47.5t-23.5 -62.5t-8 -64.5 q0 -16 -12.5 -28.5t-28.5 -12.5t-28.5 12.5t-12.5 28.5z" />
<glyph unicode="&#xf6;" horiz-adv-x="1073" d="M43 496q0 102 39 192t106.5 157.5t158 106.5t192.5 39t192.5 -39t158 -106.5t106.5 -157.5t39 -192t-39 -192.5t-106.5 -158t-158 -106.5t-192.5 -39t-192.5 39t-158 106.5t-106.5 158t-39 192.5zM129 496q0 -86 32 -163t87 -134.5t130 -90t161 -32.5t160.5 32.5t130 90 t87.5 134.5t32 163t-32 162.5t-87.5 134t-130 90t-160.5 32.5t-161 -32.5t-130 -90t-87 -134t-32 -162.5zM334 1219q0 25 16 42t41 17t42 -17.5t17 -41.5q0 -25 -17.5 -41t-41.5 -16q-25 0 -41 16t-16 41zM620 1219q0 25 16.5 42t41.5 17t42 -17.5t17 -41.5q0 -25 -17.5 -41 t-41.5 -16q-25 0 -41.5 16t-16.5 41z" />
<glyph unicode="&#xf7;" horiz-adv-x="776" d="M0 657q0 16 12.5 28.5t28.5 12.5h692q16 0 28.5 -12.5t12.5 -28.5t-12 -28.5t-29 -12.5h-692q-16 0 -28.5 12.5t-12.5 28.5zM342 348q0 20 13.5 33.5t33.5 13.5t33.5 -13t13.5 -34q0 -20 -13 -33.5t-34 -13.5q-20 0 -33.5 13.5t-13.5 33.5zM342 977q0 20 13.5 33.5 t33.5 13.5t33.5 -13.5t13.5 -33.5t-13 -33.5t-34 -13.5q-20 0 -33.5 13.5t-13.5 33.5z" />
<glyph unicode="&#xf8;" horiz-adv-x="1069" d="M39 496q0 102 39 192t106.5 157.5t157.5 106.5t193 39q72 0 143 -22l61 155q6 16 21.5 22.5t32.5 0.5q16 -6 22 -21.5t2 -31.5l-61 -156q123 -59 198.5 -177t75.5 -265q0 -102 -39 -192.5t-106.5 -158t-157.5 -106.5t-192 -39q-82 0 -146 20l-59 -147q-6 -16 -21.5 -21.5 t-32.5 1.5q-16 6 -21 21t-1 32l59 145q-123 61 -198.5 179.5t-75.5 265.5zM125 496q0 -86 31.5 -163t87 -134.5t130.5 -90t161 -32.5t160.5 32.5t130 90t87 134.5t31.5 163t-31.5 162.5t-87 134t-130 90t-160.5 32.5t-161 -32.5t-130.5 -90t-87 -134t-31.5 -162.5z" />
<glyph unicode="&#xf9;" horiz-adv-x="1134" d="M74 494v452q0 18 11 30.5t30 12.5q18 0 29.5 -12t11.5 -31v-450q0 -86 26.5 -163t76.5 -134.5t120.5 -90t156.5 -32.5q84 0 165 34.5t143.5 93t100.5 135.5t38 161v446q0 18 11 30.5t30 12.5q18 0 29.5 -12t11.5 -31v-923q0 -23 -23 -23q-31 0 -45 35t-14 112v115 q-14 -39 -54 -84t-99.5 -85t-134.5 -66.5t-159 -26.5q-102 0 -187 39t-146.5 105.5t-95 156.5t-33.5 193zM436.5 1188.5q-6.5 23.5 16.5 48.5q20 23 44.5 19.5t37.5 -15.5q37 -41 55 -67.5t24.5 -44t3.5 -28t-10 -18.5q-6 -6 -15 -9t-24.5 3t-42 23.5t-69.5 52.5 q-14 12 -20.5 35.5z" />
<glyph unicode="&#xfa;" horiz-adv-x="1077" d="M39 494v452q0 18 11 30.5t30 12.5q18 0 29.5 -12t11.5 -31v-450q0 -86 26.5 -163t76.5 -134.5t120.5 -90t156.5 -32.5q84 0 165 34.5t143.5 93t100.5 135.5t38 161v446q0 18 11 30.5t30 12.5q18 0 29.5 -12t11.5 -31v-923q0 -23 -23 -23q-31 0 -45 35t-14 112v115 q-14 -39 -54 -84t-99.5 -85t-134.5 -66.5t-159 -26.5q-102 0 -187 39t-146.5 105.5t-95 156.5t-33.5 193zM536 1101.5q-3 10.5 3 28t24.5 44t55.5 67.5q12 12 36.5 15.5t44.5 -19.5q23 -25 17 -48.5t-21 -35.5q-43 -35 -69.5 -52.5t-42 -23.5t-24.5 -3t-15 9q-6 8 -9 18.5z " />
<glyph unicode="&#xfb;" horiz-adv-x="1140" d="M70 494v452q0 18 11 30.5t30 12.5q18 0 29.5 -12t11.5 -31v-450q0 -86 26.5 -163t76.5 -134.5t120.5 -90t156.5 -32.5q84 0 165 34.5t143.5 93t100.5 135.5t38 161v446q0 18 11 30.5t30 12.5q18 0 29.5 -12t11.5 -31v-923q0 -23 -23 -23q-31 0 -45 35t-14 112v115 q-14 -39 -54 -84t-99.5 -85t-134.5 -66.5t-159 -26.5q-102 0 -187 39t-146.5 105.5t-95 156.5t-33.5 193zM322 1127q2 20 12 30l193 170q6 4 14 10t23 6q12 0 20 -5t16 -11l195 -170q12 -10 12 -32t-12 -34t-31.5 -10t-31.5 12l-168 158l-164 -158q-12 -10 -30.5 -13 t-33.5 11q-16 16 -14 36z" />
<glyph unicode="&#xfc;" horiz-adv-x="1128" d="M68 494v452q0 18 11 30.5t30 12.5q18 0 29.5 -12t11.5 -31v-450q0 -86 26.5 -163t76.5 -134.5t120.5 -90t156.5 -32.5q84 0 165 34.5t143.5 93t100.5 135.5t38 161v446q0 18 11 30.5t30 12.5q18 0 29.5 -12t11.5 -31v-923q0 -23 -23 -23q-31 0 -45 35t-14 112v115 q-14 -39 -54 -84t-99.5 -85t-134.5 -66.5t-159 -26.5q-102 0 -187 39t-146.5 105.5t-95 156.5t-33.5 193zM363 1221q0 25 16 42t41 17t42 -17.5t17 -41.5q0 -25 -17.5 -41t-41.5 -16q-25 0 -41 16t-16 41zM649 1221q0 25 16.5 42t41.5 17t42 -17.5t17 -41.5q0 -25 -17.5 -41 t-41.5 -16q-25 0 -41.5 16t-16.5 41z" />
<glyph unicode="&#xfd;" horiz-adv-x="1134" d="M74 494v450q0 45 43 45t43 -45v-450q0 -86 27.5 -163t79 -134.5t123 -90t157.5 -32.5t165 32.5t138 90t94 134.5t35 163v8v50v133v259q0 45 43 45t43 -45v-854v-4v-49q0 -121 -48 -216t-132 -153.5t-197.5 -75t-245.5 18.5q-27 8 -33.5 26.5t1.5 34.5t24.5 21.5 t32.5 -2.5q96 -31 189.5 -20.5t166 55.5t116.5 123.5t44 187.5v223q-18 -51 -60 -98t-100.5 -84t-128 -58.5t-145.5 -21.5q-102 0 -189.5 39t-151 106.5t-99 157.5t-35.5 193zM579 1103.5q-3 10.5 3 28t24.5 44t55.5 67.5q12 12 36.5 15.5t44.5 -19.5q23 -25 17 -48.5 t-21 -35.5q-43 -35 -69.5 -52.5t-42 -23.5t-24.5 -3t-15 9q-6 8 -9 18.5z" />
<glyph unicode="&#xfe;" d="M82 -231v1493q0 16 12 28.5t29 12.5q16 0 28.5 -12.5t12.5 -28.5v-535q14 39 52 84t95.5 85t130 66.5t156.5 26.5q102 0 189 -39t150.5 -106.5t99.5 -157.5t36 -192t-36 -192.5t-99.5 -158t-150.5 -106.5t-189 -39q-76 0 -145.5 21.5t-128 58.5t-100.5 84t-60 98v-491 q0 -16 -12.5 -28.5t-28.5 -12.5t-28.5 12t-12.5 29zM168 494q0 -86 35 -163t93 -134.5t137 -90t165 -32.5t157.5 32.5t123 90t79 134.5t27.5 163t-27.5 162.5t-79 134t-123 90t-157.5 32.5q-84 0 -162 -33.5t-137 -91t-95 -134t-36 -160.5z" />
<glyph unicode="&#xff;" horiz-adv-x="1134" d="M72 494v450q0 45 43 45t43 -45v-450q0 -86 27.5 -163t79 -134.5t123 -90t157.5 -32.5t165 32.5t138 90t94 134.5t35 163v8v50v133v259q0 45 43 45t43 -45v-854v-4v-49q0 -121 -48 -216t-132 -153.5t-197.5 -75t-245.5 18.5q-27 8 -33.5 26.5t1.5 34.5t24.5 21.5 t32.5 -2.5q96 -31 189.5 -20.5t166 55.5t116.5 123.5t44 187.5v223q-18 -51 -60 -98t-100.5 -84t-128 -58.5t-145.5 -21.5q-102 0 -189.5 39t-151 106.5t-99 157.5t-35.5 193zM385 1219q0 25 16 42t41 17t42 -17.5t17 -41.5q0 -25 -17.5 -41t-41.5 -16q-25 0 -41 16t-16 41z M671 1219q0 25 16.5 42t41.5 17t42 -17.5t17 -41.5q0 -25 -17.5 -41t-41.5 -16q-25 0 -41.5 16t-16.5 41z" />
<glyph unicode="&#x152;" horiz-adv-x="1613" d="M59 645q0 133 50.5 251t138.5 205t205.5 138t251.5 51h845q16 0 28.5 -12t12.5 -29q0 -16 -12 -28.5t-29 -12.5h-764v-581h631q16 0 28.5 -12.5t12.5 -28.5t-12 -28.5t-29 -12.5h-631v-463h764q16 0 28.5 -12.5t12.5 -28.5t-12 -28.5t-29 -12.5h-845q-133 0 -251 50 t-206 138t-138.5 206t-50.5 251zM141 645q0 -117 44 -219t121 -179t179.5 -121t219.5 -44v1126q-117 0 -219.5 -44t-179.5 -120.5t-121 -179t-44 -219.5z" />
<glyph unicode="&#x153;" horiz-adv-x="2000" d="M51 516q0 102 39 192t106.5 157.5t158 106.5t192.5 39t192.5 -39t158 -106.5t106.5 -157.5t39 -192t-39 -192.5t-106.5 -158t-158 -106.5t-192.5 -39t-192.5 39t-158 106.5t-106.5 158t-39 192.5zM137 516q0 -86 32 -163t87 -134.5t130 -90t161 -32.5t160.5 32.5t130 90 t87.5 134.5t32 163t-32 162.5t-87.5 134t-130 90t-160.5 32.5t-161 -32.5t-130 -90t-87 -134t-32 -162.5zM956 494q0 115 41 207t112 156.5t164 99t195 34.5t190.5 -38t153 -104.5t101.5 -156.5t37 -194q0 -16 -12.5 -28.5t-34.5 -12.5h-861q6 -80 41 -149.5t89.5 -121 t126 -81t153.5 -29.5q76 0 149.5 27.5t126.5 80.5q12 12 31 12.5t31 -12.5q10 -12 12 -29.5t-12 -31.5q-25 -20 -58.5 -42t-75.5 -40t-93.5 -29.5t-110.5 -11.5q-102 0 -192.5 39t-158 105.5t-106.5 156.5t-39 193zM1044 535h822q-6 80 -38 149.5t-84 120.5t-123 80.5 t-153 29.5t-155.5 -29.5t-131 -80.5t-93 -121t-44.5 -149z" />
<glyph unicode="&#x178;" horiz-adv-x="1157" d="M4 1252.5q0 17.5 12 27.5q29 29 57 0l506 -504l506 504q28 29 57 0q12 -10 12.5 -27.5t-12.5 -29.5l-522 -523v-659q0 -16 -12.5 -28.5t-28.5 -12.5t-28.5 12.5t-12.5 28.5v659l-522 523q-12 12 -12 29.5zM379 1479q0 25 16 42t41 17t42 -17.5t17 -41.5q0 -25 -17.5 -41 t-41.5 -16q-25 0 -41 16t-16 41zM665 1479q0 25 16.5 42t41.5 17t42 -17.5t17 -41.5q0 -25 -17.5 -41t-41.5 -16q-25 0 -41.5 16t-16.5 41z" />
<glyph unicode="&#x2c6;" horiz-adv-x="571" d="M41 1420q2 20 12 30l193 170q6 4 14 10t23 6q12 0 20 -5t16 -11l195 -170q12 -10 12 -32t-12 -34t-31.5 -10t-31.5 12l-168 158l-164 -158q-12 -10 -30.5 -13t-33.5 11q-16 16 -14 36z" />
<glyph unicode="&#x2dc;" horiz-adv-x="880" d="M70 1458q0 47 14 95.5t41 86t64.5 62t84.5 24.5q43 0 75 -11t54.5 -29.5t38 -41t29.5 -42.5q8 -14 18.5 -32t24.5 -34t31.5 -27.5t42.5 -11.5q33 0 59.5 17.5t45 45t29.5 61.5t11 65q0 16 12.5 28t28.5 12t28.5 -12t12.5 -28q0 -47 -18.5 -94.5t-49 -86.5t-71.5 -62.5 t-88 -23.5q-35 0 -59.5 11.5t-43 28t-32 37t-25.5 38.5q-12 16 -24.5 36.5t-31 38t-42 30t-56.5 12.5q-31 0 -53 -18.5t-37.5 -47.5t-23.5 -62.5t-8 -64.5q0 -16 -12.5 -28.5t-28.5 -12.5t-28.5 12.5t-12.5 28.5z" />
<glyph unicode="&#x2000;" horiz-adv-x="863" />
<glyph unicode="&#x2001;" horiz-adv-x="1726" />
<glyph unicode="&#x2002;" horiz-adv-x="863" />
<glyph unicode="&#x2003;" horiz-adv-x="1726" />
<glyph unicode="&#x2004;" horiz-adv-x="575" />
<glyph unicode="&#x2005;" horiz-adv-x="431" />
<glyph unicode="&#x2006;" horiz-adv-x="287" />
<glyph unicode="&#x2007;" horiz-adv-x="287" />
<glyph unicode="&#x2008;" horiz-adv-x="215" />
<glyph unicode="&#x2009;" horiz-adv-x="345" />
<glyph unicode="&#x200a;" horiz-adv-x="95" />
<glyph unicode="&#x2010;" horiz-adv-x="933" d="M80 616q0 16 12 28.5t29 12.5h692q16 0 28.5 -12.5t12.5 -28.5t-12.5 -28.5t-28.5 -12.5h-692q-16 0 -28.5 12.5t-12.5 28.5z" />
<glyph unicode="&#x2011;" horiz-adv-x="933" d="M80 616q0 16 12 28.5t29 12.5h692q16 0 28.5 -12.5t12.5 -28.5t-12.5 -28.5t-28.5 -12.5h-692q-16 0 -28.5 12.5t-12.5 28.5z" />
<glyph unicode="&#x2012;" horiz-adv-x="933" d="M80 616q0 16 12 28.5t29 12.5h692q16 0 28.5 -12.5t12.5 -28.5t-12.5 -28.5t-28.5 -12.5h-692q-16 0 -28.5 12.5t-12.5 28.5z" />
<glyph unicode="&#x2013;" horiz-adv-x="954" d="M80 618q0 16 12 28.5t29 12.5h713q16 0 28 -12.5t12 -28.5t-12 -28t-28 -12h-713q-16 0 -28.5 12t-12.5 28z" />
<glyph unicode="&#x2014;" horiz-adv-x="1122" d="M80 618q0 16 12 28.5t29 12.5h880q16 0 28.5 -12.5t12.5 -28.5t-12 -28t-29 -12h-880q-16 0 -28.5 12t-12.5 28z" />
<glyph unicode="&#x2018;" horiz-adv-x="186" d="M17 1128.5q-3 24.5 8 40.5q27 47 45 74t31.5 38t21.5 11t18 -4q8 -4 15.5 -13t7.5 -27.5t-7 -50.5t-28 -83q-8 -16 -29.5 -27t-48.5 3q-31 14 -34 38.5z" />
<glyph unicode="&#x2019;" horiz-adv-x="186" d="M29 1128.5q0 18.5 7 50t27 83.5q8 16 29.5 27t48.5 -3q31 -14 34 -38.5t-7 -41.5q-29 -47 -46.5 -73.5t-30.5 -38t-22.5 -11.5t-17.5 4q-10 4 -16 13.5t-6 28z" />
<glyph unicode="&#x201a;" horiz-adv-x="258" d="M43 -77.5q0 18.5 7 50t28 82.5q8 16 29.5 27.5t48.5 -2.5q31 -14 34 -39t-8 -41q-29 -47 -46 -73.5t-30.5 -38t-22.5 -11.5t-17 4q-10 4 -16.5 13.5t-6.5 28z" />
<glyph unicode="&#x201c;" horiz-adv-x="405" d="M48 1128.5q-3 24.5 7 40.5q27 47 45.5 74t31.5 38t21.5 11t18.5 -4q8 -4 15.5 -13t7.5 -27.5t-7.5 -50.5t-27.5 -83q-8 -16 -29.5 -27t-48.5 3q-31 14 -34 38.5zM212 1128.5q-3 24.5 7 40.5q27 47 45.5 74t31.5 38t21.5 11t18.5 -4q8 -4 15 -13t7 -27.5t-7 -50.5t-27 -83 q-8 -16 -29.5 -27t-48.5 3q-31 14 -34 38.5z" />
<glyph unicode="&#x201d;" horiz-adv-x="403" d="M59 1128.5q0 18.5 7.5 50t27.5 83.5q8 16 29.5 27t48.5 -3q31 -14 34 -38.5t-7 -41.5q-29 -47 -46.5 -73.5t-30.5 -38t-22.5 -11.5t-17.5 4q-10 4 -16.5 13.5t-6.5 28zM223 1128.5q0 18.5 7.5 50t27.5 83.5q8 16 29.5 27t48.5 -3q31 -14 34 -38.5t-8 -41.5 q-29 -47 -46 -73.5t-30.5 -38t-22.5 -11.5t-17 4q-10 4 -16.5 13.5t-6.5 28z" />
<glyph unicode="&#x201e;" horiz-adv-x="387" d="M43 -77.5q0 18.5 7 50t28 82.5q8 16 29.5 27.5t48.5 -2.5q31 -14 34 -39t-8 -41q-29 -47 -46 -73.5t-30.5 -38t-22.5 -11.5t-17 4q-10 4 -16.5 13.5t-6.5 28zM207 -77.5q0 18.5 7 50t28 82.5q8 16 29 27.5t48 -2.5q31 -14 34 -39t-7 -41q-29 -47 -46 -73.5t-30.5 -38 t-22.5 -11.5t-18 4q-10 4 -16 13.5t-6 28z" />
<glyph unicode="&#x2022;" horiz-adv-x="368" d="M57 672q0 53 37 90t90 37t90 -37t37 -90t-36.5 -90t-90.5 -37q-53 0 -90 37t-37 90z" />
<glyph unicode="&#x2026;" horiz-adv-x="509" d="M45 47q0 20 13.5 33.5t33.5 13.5t33.5 -13t13.5 -34q0 -20 -13 -33.5t-34 -13.5q-20 0 -33.5 13.5t-13.5 33.5zM209 47q0 20 13.5 33.5t33.5 13.5t33.5 -13t13.5 -34q0 -20 -13.5 -33.5t-33.5 -13.5t-33.5 13.5t-13.5 33.5zM373 47q0 20 13 33.5t34 13.5q20 0 33.5 -13 t13.5 -34q0 -20 -13.5 -33.5t-33.5 -13.5t-33.5 13.5t-13.5 33.5z" />
<glyph unicode="&#x202f;" horiz-adv-x="345" />
<glyph unicode="&#x2039;" horiz-adv-x="610" d="M4 494q0 16 6 23t15 15l448 449q12 10 29.5 10t29.5 -10q10 -12 10.5 -29.5t-10.5 -29.5l-450 -426l453 -426q10 -12 10 -30t-10 -30q-12 -10 -30 -10t-30 10l-450 449q-10 10 -15.5 16t-5.5 19z" />
<glyph unicode="&#x203a;" horiz-adv-x="612" d="M68 39.5q0 17.5 10 30.5l452 426l-450 426q-10 12 -10 29.5t10 29.5q12 10 29.5 10t29.5 -10l449 -449q8 -8 14 -15t6 -23q0 -12 -5 -18.5t-15 -16.5l-451 -449q-12 -10 -29.5 -10t-29.5 10q-10 12 -10 29.5z" />
<glyph unicode="&#x205f;" horiz-adv-x="431" />
<glyph unicode="&#x20ac;" horiz-adv-x="1390" d="M33 549q0 16 12 28.5t29 12.5h116q-2 12 -2 25.5v27.5q0 16 1 34.5t4 35.5h-119q-16 0 -28.5 12t-12.5 29q0 16 12 28.5t29 12.5h131q27 106 85 196t141 155.5t185.5 103.5t217.5 38q82 0 148.5 -14t123.5 -43t109.5 -71t107.5 -99q12 -12 12 -29q0 -16 -12 -28t-29 -13 q-18 0 -34 19q-92 100 -194.5 148t-231.5 48q-98 0 -185.5 -30.5t-158 -86t-123 -131t-76.5 -163.5h475q16 0 28.5 -12.5t12.5 -28.5t-12.5 -28.5t-28.5 -12.5h-492q-4 -16 -4 -35v-35v-27.5t2 -25.5h494q16 0 28.5 -12.5t12.5 -28.5t-12.5 -28.5t-28.5 -12.5h-479 q23 -92 74 -171t122.5 -135.5t161.5 -89t189 -32.5q129 0 238.5 52t187.5 144q10 12 18 15.5t16 3.5q16 0 29 -12q12 -12 12 -27q0 -18 -16 -35q-53 -57 -105.5 -99t-108.5 -69.5t-123 -41t-148 -13.5q-117 0 -221.5 39t-187.5 106.5t-141.5 160.5t-80.5 204h-129 q-16 0 -28.5 12t-12.5 29z" />
<glyph unicode="&#x25fc;" horiz-adv-x="993" d="M0 0v993h993v-993h-993z" />
</font>
</defs>
</svg>
